<svg xmlns="http://www.w3.org/2000/svg" width="60" height="57" fill="none"><path fill="#fff" d="M3.62 12.76c.28.19 1.23-.59 2.06-1.51.12-.23.26-.46.4-.67l-.07.01a.58.58 0 0 1-.33-.1c-.26-.16-.33-.47-.3-.82v-.01a17.35 17.35 0 0 0-1.59 1.76c-.26.65-.37 1.21-.17 1.34ZM7.03 10.15 7 10.2c-.48.55-1.21 1.63-1.15 2.14a.25.25 0 0 0 .12.19c.26.18 1.23-.5 2.14-1.34a.67.67 0 0 1-.37-.1.77.77 0 0 1-.33-.56c-.03-.24.02-.5.13-.79-.17.15-.34.3-.52.42Z"/><path fill="#fff" d="M5.38 12.4c-.3.98-1.45 4.28-4.05 6.52.6.04 1.62.02 2.5-.46 1.85-1 3.73-4.2 4.14-4.94-.27-.38-.13-1.03.1-1.64-.65.57-1.44 1.14-2.01 1.14a.62.62 0 0 1-.36-.1.73.73 0 0 1-.32-.51ZM5.96 10.1c.28.18 1.5-.81 2.6-2.15a2.7 2.7 0 0 1-.44-.46l-.36.24A18.84 18.84 0 0 0 6 9.1c-.17.5-.21.89-.04 1ZM10.41 14.3a.61.61 0 0 1-.07-.03c-.43-.28-.4-.81-.24-1.32-.52.44-1.12.84-1.6.84l-.12-.01c-.37.66-1.7 2.93-3.24 4.32 2.76.48 4.74-2.8 5.27-3.8ZM9.13 10.82l-.01.03-.01.02c-.6 1-1.02 2.2-.7 2.4.28.2 1.22-.49 2.05-1.33a.55.55 0 0 1-.08-.04c-.53-.35-.34-1.23-.03-2-.38.34-.79.65-1.22.92Z"/><path fill="#fff" d="M8.89 35.29c-1.84-5.04-3.92-9.86-3.48-15.47.04-.6.74-.6.7.04-.5 5.45 1.64 10.2 3.44 15.18 1.1-.64 1.4-1.73.88-3.27-1.35-4.66-2.7-9.17-1.96-14.22a4.38 4.38 0 0 1-2.74 1.09c-.36 0-.71-.05-1.05-.15-.2.14-.4.28-.6.4-.81.43-1.69.53-2.34.53-.32 0-.63-.02-.94-.07l-.54.37.12-.68c2.5-1.8 3.81-4.76 4.34-6.2-.33.25-.68.43-1.02.43a.62.62 0 0 1-.34-.1c-.23-.15-.32-.4-.31-.71v-.02C.68 15.96-.2 20.14.04 24.41c.41 7.33 3.74 11.74 6.16 18.24 1.37-.18 2.07-1.62 1.54-2.87-2.3-5.66-5.3-10.78-5.16-17.14 0-.6.7-.63.7 0-.22 6.06 2.8 11.19 5 16.6 1.1-.93 1.31-2.24.6-3.95ZM9.4 8.4a2.08 2.08 0 0 1-.38-.14c-.51.63-1.2 1.67-1.12 2.19a.29.29 0 0 0 .12.22c.37.24 1.85-.88 3-2.09a2.47 2.47 0 0 1-.12-.18c-.5.14-1.01.14-1.5 0ZM11.17 11.91c-.45.7-.88 1.74-.56 1.95.05.03.1.04.15.03h.03c.4-.05 1.2-.72 1.84-1.48-.3-.35-.2-.96 0-1.55-.47.44-1 .87-1.46 1.05ZM12.04 9.33c-.25-.08-.48-.2-.67-.38-.55.94-1.08 2.3-.72 2.54a.3.3 0 0 0 .24.02.25.25 0 0 1 .08-.03c.55-.2 1.54-1.12 2.33-2.1l.07-.11c-.42.18-.9.2-1.33.06ZM11.75 16.2c.74-.48 1.93-1.9 2.84-3.08.58-1.57.24-.68.58-1.57-.7.57-1.48 1.08-2.04 1.08h-.05c-.34.4-1.32 1.52-2.13 1.71-.44.87-.98 1.67-1.62 2.4.59.03 1.61 0 2.42-.54ZM14.68 9.97a1.7 1.7 0 0 1-.94-.36c-.54.94-1.06 2.27-.7 2.52.34.22 1.63-.71 2.78-1.81.07-.23.12-.45.16-.68-.35.22-.75.33-1.16.34h-.14Z"/><path fill="#fff" d="M9.53 7.94c.46.12.95.1 1.4-.06l.24-.1.09.24s.26.64.92.84c.68.21 1.13-.11 1.13-.11l.23-.18.13.26c.01.02.33.61 1.03.66.61.04 1.08-.27 1.34-.5.03-1.44-.8-2.58-3.07-2.89-1.37-.19-2.85.2-4.44 1.13.18.22.51.57 1 .7ZM15.59 12.61c-.12.8-.12 1.68.2 1.81.4.17 1.13-.7 1.58-1.45-.41-.25-.68-.9-.84-1.45-.57.58-.37.32-.94 1.1ZM15.93 28.97c-.03.66 0 1.52.43 2.07.33.42.84.56 1.35.57-.06-.5-.09-.99-.1-1.48V19.56a8.94 8.94 0 0 1-1.74-1.65L14 20.38l-.02.03-.92 1.22a1.52 1.52 0 0 0 .07 1.93l2.37 2.7a2.17 2.17 0 0 1 .53 1.79c-.05.3-.08.6-.1.92ZM16.92 11.08c.18.73.5 1.5.8 1.5.36 0 .69-.95.83-1.74-.37-.03-.75-.27-1.1-.59-.15.29-.33.56-.53.83Z"/><path fill="#fff" d="M17.85 13.13c-.3.5-1.14 1.8-1.96 1.8-.1 0-.2-.02-.28-.06-.47-.2-.59-.83-.58-1.47a5.54 5.54 0 0 0 .77 3.6c.5.74 1.11 1.4 1.82 1.95v-4.38h.86a6.79 6.79 0 0 1-.63-1.44ZM18.88 7.27v-.08h-.07a2.64 2.64 0 0 1-.55-.07 7.3 7.3 0 0 1-.58 2.66c.4.4.8.66 1.06.56.64-.25.37-2.17.14-3.06v-.01ZM16.55 47.46c.86-5.2 1.15-7.53 1.15-7.53l.06-.29c.12-.57.77-.41.79.13 0 .14-.02.28-.04.42-.78 5.5-1.07 8.41-1.07 8.41-.5 2.28 2.6 3.09 2.77-.06.04-.66.05-1.29.06-1.94l.1-6.3-.01-2.51a12.1 12.1 0 0 1-2.54-5.49c-.76 0-1.5-.2-2-.84-.73-.92-.63-2.4-.47-3.5a1.48 1.48 0 0 0-.37-1.24l-2.36-2.7a2.2 2.2 0 0 1-.1-2.8l2.92-3.89-.05-.06a5.98 5.98 0 0 1-.88-3.26 14.39 14.39 0 0 1-2.49 2.6 4.38 4.38 0 0 1-2.86.6c.04.1.05.2.03.31-.84 4.97.62 9.6 2 14.3a2.85 2.85 0 0 0 1.63-2.8c-.25-1.72 1.98-.63.78 2.22-1.6 3.84-3.34 7.7-4.77 11.6-.72 1.99 1.18 2.52 1.84 1.01 1.17-2.63 2.17-5.33 3.22-8.01.08-.35.65-.24.54.17-1.04 2.96-2.04 6.08-3.13 9-.72 1.93 1.56 3.01 2.09.62.56-2.58 1.47-5.39 2.18-7.98.15-.55.86-.5.64.42-1.51 6.31-2.1 9-2.1 9-.77 2.57 2.32 3.06 2.44.39ZM18.27 12.83c.12.43.41 1.21.8 1.75h1.57c.3-.5.47-1.24.53-1.67-.87-.19-1.74-1.51-2.12-2.15-.06.41-.27 1.56-.78 2.07ZM21.47 12.42c.53-.17.5-1.61.29-2.7a.85.85 0 0 1-.27.04c-.68 0-1.4-.75-1.92-1.43.09.69.1 1.51-.18 2.03.56 1 1.54 2.25 2.08 2.06ZM20.78 6.18a2.84 2.84 0 0 1-1.44.95c.61 1.02 1.7 2.34 2.27 2.12.6-.23.4-1.94.18-2.9a2.1 2.1 0 0 1-1-.17ZM21.6 13.26c-.09.45-.23.9-.42 1.31h1.48a7.23 7.23 0 0 1-1.06-1.3ZM20.73 40.81c.5.38.98 1.26 1.5 1.23.41-.03.65-.54.4-.88-.3-.42-1.28-.21-1.9-.35ZM21.34 42.86l.6.27c1.03.48 1.83-.27 2.25-.56l-.6-.27c-1.03-.48-1.49.49-2.25.56ZM23.3 40.24l-.6-.28c.44.62-.02 1.6 1.02 2.08l.6.27c-.05-.5.01-1.6-1.03-2.07ZM24.48 8.17c.6-.23.4-1.92.18-2.87a1.8 1.8 0 0 1-1.36.13c-.22.37-.57.65-.97.8.62.99 1.62 2.14 2.15 1.94Z"/><path fill="#fff" d="M24.72 11.5c.6-.25.36-1.95.09-2.96a.86.86 0 0 1-.45.14c-.68 0-1.4-.75-1.92-1.43.1.73.1 1.62-.24 2.12.7 1.05 1.92 2.4 2.52 2.14ZM21.86 12.76c.31.52.96 1.43 1.6 1.8h.99c.5-.48.48-1.81.4-2.59a.87.87 0 0 1-.29.05c-.77 0-1.64-.92-2.21-1.63.09.85.07 1.95-.5 2.37ZM17.38 4.39c.53.47.82 1.3.87 2.25v-.01c.27.07.7.13 1.14-.03.45-.17.84-.47 1.11-.86l.13-.21.2.13c.01 0 .6.37 1.26.14.67-.22.84-.75.84-.75l.09-.27.26.13c.02 0 .62.3 1.22-.07.64-.4.8-1.13.83-1.4-3.76-4.04-9.17-4.18-9.06-2.2-2.76.01-3.33 1.22-1.73 3.23.09-.96 1.82-1 2.84-.08Zm1.65-3c-.17.2-.4.33-.67.38.23.66.18.74-.31.22a2.2 2.2 0 0 0-1.12-.6c.7-.52 1.4-.52 2.1 0ZM23.7 43.95c1.04.48 1.84-.27 2.25-.56l-.59-.27c-1.04-.48-1.5.49-2.25.56l.59.27ZM25.48 42.86l.6.27c-.05-.5 0-1.6-1.03-2.07l-.59-.28c.44.62-.02 1.6 1.02 2.08ZM27.35 7.08c.1-.04.17-.11.22-.2a12.39 12.39 0 0 0-1.83-2.98 2.4 2.4 0 0 1-.64 1.08c.61 1.02 1.69 2.31 2.25 2.1ZM25.47 44.77c1.03.48 1.83-.27 2.25-.56l-.6-.28c-1.03-.48-1.49.5-2.25.56l.6.28ZM27.25 43.67l.59.28c-.05-.5.02-1.6-1.02-2.08l-.6-.27c.44.61-.01 1.6 1.03 2.07Z"/><path fill="#fff" d="M27.22 7.6c-.67 0-1.4-.76-1.91-1.44a4.02 4.02 0 0 1-.12 1.95l.04.12c.7 1.05 1.9 2.35 2.48 2.1.57-.25.39-1.74.14-2.76l-.07-.19a.82.82 0 0 1-.56.21ZM27.52 47.33l.37-.17-.3-.65-.37.18a.37.37 0 0 1-.45-.11l-.07-.14a.37.37 0 0 1 .2-.42l.38-.17-.3-.64-.37.17a1.08 1.08 0 0 0-.62 1.07l-.46.2a1.08 1.08 0 0 0-1.22-.2l-.49.22a1.08 1.08 0 0 0-.62 1.07l-.45.21a1.09 1.09 0 0 0-1.22-.21l-.5.23a1.08 1.08 0 0 0 .91 1.94l.5-.23a1.08 1.08 0 0 0 .62-1.06l.45-.21a1.08 1.08 0 0 0 1.22.21l.5-.23a1.08 1.08 0 0 0 .61-1.07l.46-.2a1.09 1.09 0 0 0 1.22.2Zm-5.38 1.72-.5.22a.37.37 0 0 1-.5-.46.37.37 0 0 1 .2-.2l.49-.23a.37.37 0 0 1 .48.18.37.37 0 0 1-.17.49Zm2.79-1.3-.5.23a.37.37 0 0 1-.45-.11l-.06-.14a.37.37 0 0 1 .2-.41l.5-.23a.37.37 0 0 1 .52.31.37.37 0 0 1-.21.35ZM21.61 52.27c.58 0 2.6-.28 2.62.42-.2 1.87-6.88-.98-8.34-2.22l.61 1.92-2.02-.26c1.62 1.37 9.75 4.83 9.75 2.7v-1.77c1.3.2 2.62.32 3.93.38v-2.12c-2.2-.1-4.39-.36-6.55-.8-1.15 0-1.15 1.75 0 1.75ZM25.11 14.48l.06.1h3.07c0-.3-.03-.6-.07-.9-.15.05-.3.08-.47.08-.85 0-1.75-.75-2.32-1.32a4.5 4.5 0 0 1-.27 2.04Z"/><path fill="#fff" d="M27.56 10.84c-.7 0-1.5-.78-2.07-1.45.12.78.17 1.71-.2 2.24.57.66 1.92 1.97 2.75 1.57.82-.4.57-2.06.35-2.92-.1.22-.27.4-.49.5a.87.87 0 0 1-.34.06ZM28.6 13.39l.03.09c.05.36.09.73.1 1.1h1.53a1.79 1.79 0 0 1-.34-.28c-.47-.48-.64-1.18-.5-1.98.07-.34.2-.67.35-.98a.65.65 0 0 1-.71 0c.07.74 0 1.57-.47 2.05Z"/><path fill="#fff" d="M31.37 14.33a1.26 1.26 0 0 0 .86-.52c-.19-.38-.28-.8-.26-1.21.02-.83.47-1.62.86-2.14-.2.03-.4.04-.61.04-.36 0-.7-.12-.98-.34a5.03 5.03 0 0 0-1.33 2.25c-.12.64 0 1.19.36 1.56a1.25 1.25 0 0 0 1.1.36ZM32.1 14.57h.82a1.75 1.75 0 0 1-.33-.26l-.08-.08c-.12.13-.26.25-.4.34ZM32.21 10.02c.38 0 .75-.06 1.1-.2-.13-.38-.2-.96.1-1.67.14-.32.33-.61.57-.87a1.98 1.98 0 0 1-.5-.1c-.34-.12-.69-.5-.9-.95-.4.37-1.34 1.28-1.48 2.25-.07.48.02.87.26 1.15a1.18 1.18 0 0 0 .85.39ZM30.74 50.92h-.14.14v-.99h2l1.36.41V48.5l-1.36.4H31.3v-6.67c-.4.05-.8.08-1.22.08v6.6h-.48v-6.6c-.4 0-.8-.03-1.2-.08v6.67h-1.45l-1.36-.4v1.85l1.36-.4h2v4.85l-.66 1.35h3.11l-.66-1.35v-3.87Z"/><path fill="#fff" d="M32.46 12.6c-.01.73.25 1.15.47 1.36a1.2 1.2 0 0 0 .88.36c.74-.02 1.05-.65 1.05-.66l.01-.02a2.33 2.33 0 0 1-.21-1.05c0-.56.26-1.16.57-1.68a2.02 2.02 0 0 1-.89-.02 1.36 1.36 0 0 1-.77-.57c-.35.4-1.1 1.33-1.1 2.28ZM35.16 14.1c-.13.18-.31.35-.51.47h1.1a2.15 2.15 0 0 1-.59-.48ZM36.02 42.14l-.21-.38-3.79 2.1.45.24 3.55-1.96ZM33.65 6.72c.6.2 1-.04 1.01-.05h.02c.34-.26.7-.47 1.07-.66a2.56 2.56 0 0 1 .5-1.5c-.1-.01-.18-.03-.27-.06-.26-.1-.5-.35-.63-.69a1.65 1.65 0 0 1-.1-.67c-.56.17-1.7.62-2.15 1.42a1.63 1.63 0 0 0-.11 1.42c.16.42.45.71.66.79ZM36.7 43.36l-.21-.38-3.02 1.67.45.25 2.78-1.54ZM35.88 6.68l-.06-.16c-.49.26-1.6.92-1.96 1.81a1.81 1.81 0 0 0 0 1.55c.14.28.37.49.59.54.75.18 1.24-.2 1.24-.2.21-.29.43-.55.67-.8v-.07c.08-.64.58-1.34.99-1.82l-.2.01c-.15 0-.3-.01-.44-.05-.36-.11-.67-.4-.83-.8ZM36.15 4c.4.13.76-.16.76-.16.47-.35.98-.64 1.51-.85A12.7 12.7 0 0 1 37.2 1.5c-.3.12-.93.43-1.26 1.01-.27.49-.19.89-.12 1.08.1.23.23.37.34.4ZM37.96 13.63c-.1-.27-.15-.56-.15-.85 0-.52.2-1.07.44-1.55a1.47 1.47 0 0 1-.62 0 1.66 1.66 0 0 1-1.2-1.15c-.47.54-1.27 1.63-1.29 2.52a1.64 1.64 0 0 0 1.38 1.73 1.43 1.43 0 0 0 1.44-.7Z"/><path fill="#fff" d="M35.89 41.41c.19.11.45.23.76.07l.23-.13c-.19 0-.34-.14-.51-.2l.2-.11c.19.1.46.23.76.06l.23-.13c-.19 0-.34-.14-.51-.2l.2-.11c.19.11.46.23.76.06l.23-.12c-.19 0-.33-.14-.51-.2l.22-.13.02-.01c.16-.1.3-.36.45-.5-.21.07-.55.03-.7.15l-.2.11c.04-.18 0-.38.1-.54l-.23.13c-.3.16-.35.46-.35.67l-.2.12c.04-.19 0-.39.1-.54l-.24.13c-.3.16-.34.45-.34.67l-.2.12c.04-.19 0-.39.1-.54l-.24.12c-.3.17-.34.46-.34.68l-4.38 2.42.45.25 4.14-2.3ZM38.2 14.13c-.14.17-.31.32-.51.44h.92a2.18 2.18 0 0 1-.4-.45ZM38.2 41.24c.04-.18 0-.38.1-.54l-.23.13c-.3.17-.34.46-.35.68l-.2.1c.04-.17 0-.37.1-.53l-.23.13c-.3.17-.34.46-.35.68l-.2.1c.04-.17 0-.37.1-.53l-.23.13c-.3.16-.34.45-.35.67l-3.61 2 .45.25 3.37-1.87c.2.11.46.23.76.06l.23-.12c-.18 0-.33-.14-.5-.2l.2-.11c.18.1.45.23.75.06l.23-.13c-.18 0-.33-.14-.5-.2l.2-.11c.18.11.45.23.76.06l.22-.12c-.18 0-.33-.14-.5-.2l.22-.13.02-.01c.16-.1.3-.36.45-.5-.22.07-.55.03-.7.15l-.2.1ZM37.73 10.76c.54.1.93-.25.99-.31.19-.27.39-.53.61-.77a4.31 4.31 0 0 1-.83-2.45 6.1 6.1 0 0 1-.29.1c-.2.19-1.26 1.23-1.35 2.08-.12.94.59 1.29.87 1.35ZM35.88 46.67l-.49-.23a1.09 1.09 0 0 0-1.22.22l-.45-.21a1.08 1.08 0 0 0-.62-1.07l-.38-.17-.3.64.38.17a.37.37 0 0 1 .2.42l-.07.14a.37.37 0 0 1-.44.1l-.38-.17-.3.65.38.17a1.09 1.09 0 0 0 1.21-.22l.46.21a1.07 1.07 0 0 0 .62 1.07l.5.23a1.09 1.09 0 0 0 1.21-.21l.46.2a1.08 1.08 0 0 0 .62 1.08l.49.23a1.08 1.08 0 0 0 1.58-.92 1.07 1.07 0 0 0-.67-1.03l-.5-.23a1.09 1.09 0 0 0-1.21.21l-.46-.2a1.08 1.08 0 0 0-.62-1.08Zm-.1 1.06-.06.14a.37.37 0 0 1-.45.11l-.5-.23a.37.37 0 1 1 .32-.66l.5.23a.37.37 0 0 1 .2.4Zm1.6.83a.37.37 0 0 1 .5-.18l.48.23a.37.37 0 0 1 .1.6.37.37 0 0 1-.4.06l-.5-.22a.37.37 0 0 1-.18-.5ZM36.52 4.98c-.3.54-.37 1.09-.2 1.52.12.26.3.45.53.52.32.1.77 0 1.15-.13l.53-.2a3.69 3.69 0 0 1 1.43-2.48c-.42-.24-.8-.52-1.15-.85-.42.16-1.77.7-2.29 1.62ZM39.34 42.7c.16-.1.3-.36.45-.5-.22.07-.55.04-.7.15l-.2.11c.03-.18 0-.38.09-.54l-.23.13c-.3.17-.34.46-.35.68l-.2.11c.04-.18 0-.38.1-.54l-.23.13c-.3.17-.34.46-.35.68l-.2.1c.04-.17 0-.37.1-.53l-.23.12c-.3.17-.34.46-.35.68l-2.84 1.58.44.24 2.61-1.44c.2.11.46.23.76.06l.23-.12c-.18 0-.33-.14-.5-.2l.2-.12c.18.12.45.23.75.07l.23-.13c-.18 0-.33-.14-.5-.2l.2-.11c.18.1.45.23.75.06l.23-.13c-.18 0-.33-.14-.5-.2l.22-.12.02-.02ZM40.08 10.5c-.16-.14-.3-.28-.45-.44-.26.3-1.34 1.62-1.33 2.72 0 .8.39 1.23.62 1.42.3.25.58.3.73.28a1.27 1.27 0 0 0 .9-.62c-.12-1.07.3-2.29.5-2.76a4.09 4.09 0 0 1-.97-.6ZM29.85 26.18c.18-.04.8-.23.91-.31.08-.05.06-.1-.15-.15-.57-.12-.9-.27-1.02-.77-.2.34-.82 1.05-1.36 1.44.34-.07 1.37-.6 1.56-.72-.15.49-.19.59.06.51Z"/><path fill="#fff" d="m27.09 26.11-1.1.77a5.6 5.6 0 0 0 3.41-2.33c.22-.1.45-.12.68-.08 1.66.2 1.76 1.57 4.65 1.64v-4.22h-9.76v4.22l1.06-.84 1.06.84Zm4.92-2.63a1.07 1.07 0 0 1-.76 1.02 2.9 2.9 0 0 0-1.13-.39c-.3-.04-.6 0-.87.12-.17.08-.23.31-.5.31a1.08 1.08 0 0 1-1.06-1.06H32ZM34.73 28.18v-.88h-9.76v.88a4.9 4.9 0 0 0 4.88 4.87 4.9 4.9 0 0 0 4.88-4.87Zm-2.95 2.5c-.45 0-.82-.32-.82-.7h1.64c0 .38-.36.7-.82.7Zm1.78-2.03c0 .4-.36.7-.81.7-.46 0-.82-.3-.82-.7h1.63Zm-1.93 0c0 .4-.36.7-.82.7-.45 0-.82-.3-.82-.7h1.64Zm-5.5 0h1.64c0 .4-.37.7-.82.7-.45 0-.82-.3-.82-.7Zm1.79 2.03c-.46 0-.82-.32-.82-.7h1.64c0 .38-.37.7-.82.7Zm.15-2.03h1.64c0 .4-.37.7-.82.7-.46 0-.82-.3-.82-.7Zm.96 1.32h1.64c0 .4-.36.7-.82.7-.45 0-.82-.3-.82-.7ZM22.64 33.44c-.03.13.38.35.5.38.3.09.43-.38.12-.46-.11-.03-.58-.05-.62.08ZM24.24 34.18a.43.43 0 0 0 .2-.42.42.42 0 0 0-.3-.36.43.43 0 0 0-.54.39.42.42 0 0 0 .48.44c.06 0 .11-.02.16-.05ZM23.8 32.95c-.05-.1-.37-.44-.49-.37-.11.07.02.52.08.62.16.28.58.03.42-.25ZM24.48 33.05c.03-.11.04-.59-.09-.62-.13-.03-.35.38-.38.5-.08.3.39.43.47.12Z"/><path fill="#fff" d="M41.46 30.11V15.2H18.23V30.1a11.62 11.62 0 0 0 23.23 0Zm-8.32 9.03c-.01-.36.23-.53.74-.51.22-.9.34-1.5.37-1.81a1.11 1.11 0 0 1-1.12-.76c.21-1.31.5-2.11.85-2.4.32.02.64.02.96.01.79 1.24.65 2.3.64 3.69l-1.45 1.7-.99.08Zm.2-2.44c.2.14.43.25.66.32l-.17 1.16a3.17 3.17 0 0 1-.5-1.48Zm.6-3.63.33.23.18-.41.19.4.32-.22-.01.45h-1v-.45Zm1.83-1.88h.47l-.08.46.46-.08v.47l-.46-.09.08.46h-.47l.09-.46-.46.09v-.47l.46.08-.09-.46Zm.24 1.96a.29.29 0 0 1-.28-.34.29.29 0 0 1 .22-.23.3.3 0 0 1 .3.12.29.29 0 0 1-.24.45Zm.16.16v4.02h-.32V33.3h.32Zm-1.03 5.74c-.09-.2 0-.36.24-.47-.4-.69.64-1.33 1.25-.6-.46.4-.96.76-1.49 1.07Zm2.77-2.37a.36.36 0 0 1-.13-.3c.03-.27.27-.27.36-.52.08-.25-.12-.49-.4-.28l-.4.3a.97.97 0 0 1 1.12-.94c.18.02.35.1.49.22-.3.53-.65 1.05-1.05 1.52Zm1.93-5.17c-.1.72-.82.73-1.38.85-.2.03-.4.1-.58.2-.28.15-.52.6-.2.77.37.2.56-.3.93-.45.44-.16.77.2 1.03.77-.12.32-.22.56-.3.72-.05-.13-.13-.4-.23-.61-.37-.82-.48-.08-.72.27a5.4 5.4 0 0 1-1.23 1.2c-.2.58-.43 1.02-.7 1.31V34.2c.32-.26.48-.68.59-1.05.08-.33.1-.44.39-.7a2 2 0 0 1 .95-.43c.26-.05.78-.1.97-.28a.44.44 0 0 0 .13-.27c.07-.48-.67-.62-1.02-.68-.26-.05-.57-.13-.74-.35-.3-.4.06-1 .3-1.35.16-.23.45-.03.3.2-.13.17-.49.71-.32.94.1.13.37.19.53.21.14.02.28.06.41.1.48.13.97.4.9.98Zm-2.33-13.69c.94-.04.8-.7.36-.74.6-.34.96.23.89.77.55-.07 1.12.3.78.89-.05-.45-.7-.58-.75.36 2.35.03 1.06 3.63 1.46 5.54-.43-.2-.71-.47-.69-1.13l.09-2.5c.01-.5-.28-.53-.31-.32-.05.73-.07 2.06-.12 3.02-.42-.19-.57-.42-.54-1.08l.06-2.23c.02-.5-.27-.53-.3-.31-.05.72-.06 1.83-.1 2.72-.43-.2-.57-.4-.55-1.06l.04-1.63c.02-.49-.23-.6-.41-.41-.07.08-.13.17-.17.26-.65 1.33-1.96.04-.62-.62.1-.04.19-.1.27-.16.18-.18.07-.43-.42-.41l-1.64.04c-.66.02-.87-.13-1.06-.55.9-.04 2-.05 2.73-.1.22-.03.19-.32-.3-.3l-2.25.06c-.66.03-.9-.12-1.08-.54.96-.05 2.3-.07 3.02-.11.22-.04.19-.33-.3-.31l-2.53.08c-.66.03-.94-.26-1.12-.68 1.91.4 5.53-.89 5.56 1.45ZM22 18.5a.29.29 0 0 1-.21.5.29.29 0 0 1-.28-.35.29.29 0 0 1 .48-.15Zm-1.56-.8.33-.34.27.38.27-.38.33.33-.39.27.39.26-.33.33-.27-.38-.27.38-.33-.33.39-.27-.39-.26Zm-1.23.17a.93.93 0 0 1 .94.46c.07.13.1.26.1.4-.01.55-.48 1.07-.6 1.62-.03.2-.05.46.03.66a.39.39 0 0 0 .25.24c.34.09.59-.42.75-.65.41-.59.83-1.06 2.01-1.87-.3-1.49.66-3.22 2.02-2.06-.05.28-.2.53-.43.71a.91.91 0 0 1 .29 1.36c.44.19.79.28 1.12.22.3-.06.34-.14.56-.3.14-.1.3-.15.43.1-.44.53-1.3.77-2.59.7-.5.46-1.1.82-1.73 1.07.02.42-.43 1.07-1.34 1.96.14.76.06 1.38-.27 1.62-.31.23-.74.16-.45-.33.2-.33.6-.62.26-1-.63-.73.8-1.12.28-1.82l-.28.3c-.18.2-.43.33-.7.26a.66.66 0 0 1-.44-.4c-.1-.26-.1-.56-.04-.82.05-.2.11-.38.2-.55.13-.3.38-.7.38-1.02 0-.1-.03-.2-.08-.3a.48.48 0 0 1-.68-.29.47.47 0 0 1 0-.27h.01Zm4.3 3.25c-.2.7-1.22 1.09-1.9 1.17.5-.56.8-1.1.88-1.6.1.27.1.46.01.83.5-.07.79-.61 1.01-.4Zm1.27 17.1c.72.03 1.28-.12 1.68-.47 1.12.53-.76 1.94-1.68.48Zm-.4-.36c-.05.32-.09.69-.12 1.03l-.37-.27.11-.97-.16-.11c-.07.42-.06.66-.09.97l-.64-.47c.11-.11.22-.16.32-.16l.08-.65c-.3-.33-.56-.77-.77-1.35l.08.93-.07-.03a1.47 1.47 0 0 1-.95-1.69 1.47 1.47 0 0 1-1-1.66l.01-.07.78.53c-.4-.47-.66-.92-.79-1.34l-.6-.26c-.05.09-.15.15-.3.2l-.1-.79c.3.14.5.27.9.41a1.95 1.95 0 0 1-.02-.2l-.9-.38-.05-.45c.32.14.66.29.96.4.2-1.44 1.81-2.17 2.39-1.4a.7.7 0 0 1-.03.87c.04-.43-.72-.92-.83.09-.3 2.7-.42 4.05-.42 4.05s1.24.58 3.74 1.67c.93.4.88-.5.49-.67a.7.7 0 0 1 .77.4c.38.9-1.06 1.91-2.41 1.37Zm-2.56-8.11c-.5.18-.92.58-1.25 1.2-.81-1.51 1.35-2.43 1.25-1.2Zm1.42 2.73a1.56 1.56 0 0 1 2.28 1.74 1.55 1.55 0 0 1-2.2.99 1.55 1.55 0 0 1-.8-1.79c.1-.4.36-.73.72-.94Zm.5-4.29v-.87h-4.92v-1.2h4.93v-5.43h5.48v-4.9h1.21v4.9h5.49v5.42h4.92v1.2h-4.92v.89a6.11 6.11 0 0 1-5.49 6.03v6.85a10.98 10.98 0 0 1-1.2 0v-6.85a6.11 6.11 0 0 1-5.5-6.03ZM22.51 21.52c-.04 0 .04 0 0 0Z"/><path fill="#fff" d="M24.89 33.6c.1-.06.44-.38.38-.5-.07-.12-.53.02-.62.08a.24.24 0 1 0 .24.42ZM24.24 34.67c.06.1.38.45.5.38.11-.07-.02-.52-.08-.62-.16-.28-.58-.03-.42.24ZM23.57 34.57c-.03.11-.05.59.08.62.13.03.36-.38.39-.49.08-.31-.39-.44-.47-.13ZM24.79 34.27c.1.03.58.04.62-.09.03-.13-.38-.35-.5-.38-.3-.08-.43.38-.12.47ZM23.17 34.03c-.1.05-.45.38-.38.5.02.03.07.04.13.04.17-.01.33-.05.49-.12a.24.24 0 0 0-.25-.42ZM34.22 34.79l.07.24c.02.1.07.17.17.17s.14-.08.17-.17l.06-.24c.33 0 .38-.02.44-.33h-1.35c.06.3.11.33.44.33ZM39.03 2.91l.03.03a5.62 5.62 0 0 0 1.5 1.04c.63.28 1.14.3 1.49.25.64-.09.95-.43 1-.57.3-.99-.14-1.7-1.3-2.13-1.24-.46-3.36-.5-4.29-.5.46.69.99 1.31 1.57 1.88ZM42.09 15.2c.22.05.45.03.66-.05.51-.19.77-.71.85-.88-.25-.99-.04-2.1.05-2.5a10.2 10.2 0 0 1-2.15-.49c-.19.48-.65 1.81-.43 2.8.04.18.1.34.18.5h.83v.63ZM42.61 20.03c.63.09 1.44-.25 1.62-1.48.17-1.15-.42-3.1-.54-3.5a1.74 1.74 0 0 1-1.37.67l-.23-.02v4.06c.14.15.32.24.52.27ZM43.8 50.47c-1.44 1.22-8.12 4.24-8.34 2.22.02-.7 2.04-.42 2.62-.42 1.15 0 1.15-1.75 0-1.75-2.16.42-4.35.69-6.55.79v2.13c1.32-.06 2.63-.19 3.93-.38v1.76c0 2.34 8.17-1.35 9.76-2.7l-2.03.27.6-1.92ZM46 11.42c-.67-.63-1.14-1.3-1.2-2.1a6.21 6.21 0 0 1-1.71-1.3 5.5 5.5 0 0 1-1.27-3.28h-.07c-.45 0-.89-.1-1.3-.28A3.24 3.24 0 0 0 39 6.93a3.9 3.9 0 0 0 1.4 3.2c1.34 1.14 4.16 1.3 5.61 1.29ZM45.48 15.64c.38.07.65 0 .78-.1.42-.34.49-.71.5-.83a8.3 8.3 0 0 1-.97-2.8c-.47 0-1.04-.02-1.65-.08-.09.36-.4 1.88.13 2.84.37.7.92.9 1.21.97Z"/><path fill="#fff" d="M44.69 18.73c.16.34.43.62.77.78.23.11.73.16 1.15-.07.36-.2.57-.54.63-1.03.12-1-.27-2.22-.44-2.71l-.24.22c-.2.15-.48.23-.79.23a2.2 2.2 0 0 1-1.43-.58c.22.82.5 2.14.37 3.05l-.02.11ZM41.92 1.07c1.97.72 1.77 2.15 1.6 2.73-.12.34-.56.73-1.21.87.03.52.2 1.96 1.15 3.02.4.43.86.8 1.37 1.08 1.09-.07 1.74.06 1.96.42a.91.91 0 0 0 .7-.41c.5-.78-.2-1.22-.99-1.16a.25.25 0 0 1-.26-.23c-.03-.37 1.72-.65 2.15-.39.5-.78.8-1.68.87-2.6a11.23 11.23 0 0 0-6.71-3.15c.07-1.29-2.18-1.68-4.8-.7 1.06 0 2.97.08 4.17.52Zm2.52 1.9c1.02 0 1.87.4 2.74 1.07l-1.52-.24a.74.74 0 0 1-1.22-.84ZM46.3 11.9c.11.65.49 2.36 1.26 3.01.61.51 1.2.5 1.5.45.37-.06.6-.24.68-.38.08-.14.13-.3.16-.45-1.1-1.04-2.35-1.84-3.33-2.64l-.27.01Z"/><path fill="#fff" d="M48.78 15.87a2.3 2.3 0 0 1-1.26-.39c.18.52.66 1.72 1.49 2.23 1.05.65 1.94.07 2.18-.29.2-.3.27-.65.3-.95a8.59 8.59 0 0 0-1.2-1.54c-.03.1-.08.2-.13.3-.18.3-.57.53-1.03.6-.11.03-.23.04-.35.04ZM48.16 27.15c.23 1.23.56 2.43 1 3.6.6 1.6 1.77 3.85 3.83 3.3l-4.57-7.08-.26.18ZM56.4 35.4l-6.36-9.87c-.36.41-.76.8-1.2 1.13l5.1 7.94a2.38 2.38 0 0 0 2.47.8Z"/><path fill="#fff" d="M56.6 36.16c-.68.18-1.4.12-2.04-.15-2.43.98-5.73-1.27-7.19-8.51l-1.74.8c.04 1.2-.07 3.04-.9 4-.4.48-.83.69-.68.33.63-1.43.9-2.99.81-4.55a.37.37 0 0 1 .22-.36c1.13-.52 2.21-.93 3.2-1.69 2.38-1.85 3.06-4.36 4.09-7.3a7.16 7.16 0 0 0-.52-1.58c-.06.2-.15.38-.26.54a2 2 0 0 1-1.62.8c-.43 0-.86-.13-1.22-.36a3.53 3.53 0 0 1-1.11-1.2c.1.5.14 1.04.08 1.54a1.73 1.73 0 0 1-1.79 1.62c-.23 0-.46-.04-.68-.14-.3-.14-.55-.34-.75-.6a1.82 1.82 0 0 1-1.7 1.18c-.18 0-.63-.05-.73-.17v9.77a12.1 12.1 0 0 1-3.7 8.7c4.13 2.16 4.25 7.99.13 5.97a1.33 1.33 0 0 0-1.95.85l.36.23a1.53 1.53 0 0 1 2.46-.24 1.33 1.33 0 0 0-2.02.82l.37.23a1.53 1.53 0 0 1 2.46-.24 1.33 1.33 0 0 0-2.02.81 3.36 3.36 0 0 0 4.79-.92 1.11 1.11 0 0 0 1.34-.35c1.73-3.46.93-1.86 1.72-3.37-3.12-1.1-2.66-6.57-.49-7.73-.32.37-.92 2.41-.9 3.85.01 2.45 3.04 1.59 3.7 5.06.33 1.82-.75 3.6-2.77 3.26a1.47 1.47 0 0 0-1.68.85c-.09.2-.13.43-.11.66l.45.13A1.68 1.68 0 0 1 46 47.44c.26.02.52.1.75.24a1.47 1.47 0 0 0-1.88 1.5c.15.04.3.09.46.12a1.68 1.68 0 0 1 1.78-1.26c.26.02.52.1.74.24a1.47 1.47 0 0 0-1.87 1.5 3.7 3.7 0 0 0 4.77-2.48 1.23 1.23 0 0 0 1.3-.8v-6.29a4.34 4.34 0 0 1-4.27-3.52 4.3 4.3 0 0 1 .1-1.98c2.63 3.1 6.44 3.88 8.84 1.47l-.04-.04a.75.75 0 0 1-.07.02ZM57.4 30.86l1.16 1.8c.37-1.46.37-3.11-.01-4.95-.58-2.84-6.24-12.26-3-12.24a1.16 1.16 0 0 0 1.04 1.14 1.17 1.17 0 0 0 1.26-.88 7.78 7.78 0 0 0-3.26-8.12c.54 1.5-.6 3.7-.96 6.63-.76 6.4 4.17 10.88 3.78 16.62Z"/><path fill="#fff" d="M51.55 23.22c-.32.66-.7 1.28-1.14 1.87l6.58 10.25a2.9 2.9 0 0 0 3 .99l-8.44-13.11Z"/></svg>