<svg width="96" height="90" viewBox="0 0 96 90" fill="none" xmlns="http://www.w3.org/2000/svg">
<path d="M5.79704 20.4244C6.24727 20.7202 7.77097 19.4727 9.09353 17.9948C9.28806 17.6273 9.50489 17.2721 9.74282 16.9309C9.70113 16.9309 9.65944 16.9444 9.6188 16.9444C9.4343 16.9487 9.25276 16.8977 9.0977 16.7981C8.68081 16.5251 8.56617 16.0363 8.60786 15.4696C8.61351 15.4649 8.61722 15.4582 8.61828 15.4509C7.69698 16.3378 6.83825 17.2869 6.04821 18.2916C6.05886 18.2876 6.06821 18.2807 6.07531 18.2719C5.65009 19.3118 5.46979 20.2096 5.79704 20.4244Z" fill="#A3A2A2"/>
<path d="M11.2384 16.2425C11.2307 16.2612 11.2209 16.279 11.2092 16.2954C10.4421 17.1859 9.26757 18.9026 9.377 19.7204C9.38165 19.7808 9.40013 19.8393 9.43102 19.8915C9.46191 19.9437 9.5044 19.9881 9.55522 20.0214C9.98461 20.3099 11.5354 19.2357 12.9945 17.8834C12.7843 17.8863 12.5779 17.8271 12.4015 17.7132C12.252 17.613 12.1261 17.4817 12.0327 17.3283C11.9393 17.1749 11.8806 17.003 11.8606 16.8247C11.8116 16.4511 11.9023 16.0173 12.069 15.572C11.8041 15.8099 11.5269 16.0337 11.2384 16.2425Z" fill="#A3A2A2"/>
<path d="M8.61148 19.8473C8.13728 21.4041 6.28425 26.6879 2.12378 30.2707C3.09511 30.3392 4.71261 30.2987 6.13938 29.5275C9.08777 27.9344 12.0883 22.8011 12.748 21.6272C12.3186 21.0263 12.5395 19.9749 12.9127 19.0107C11.8705 19.9199 10.601 20.826 9.69329 20.826C9.49008 20.8317 9.29001 20.7752 9.12008 20.6641C8.98214 20.5715 8.86549 20.4508 8.77782 20.31C8.69015 20.1692 8.63346 20.0115 8.61148 19.8473Z" fill="#A3A2A2"/>
<path d="M9.53159 16.151C9.99225 16.453 11.9234 14.8609 13.691 12.7208C13.4306 12.5022 13.197 12.2538 12.9948 11.9808C12.9948 11.9808 12.9948 11.9808 12.9948 11.9746C12.802 12.0992 12.6071 12.2278 12.4122 12.3628C11.4183 13.0453 10.4665 13.7866 9.56182 14.5828C9.57509 14.5776 9.58742 14.5702 9.59829 14.561C9.33566 15.3477 9.26583 15.9756 9.53159 16.151Z" fill="#A3A2A2"/>
<path d="M16.6587 22.89C16.6191 22.8716 16.5808 22.8504 16.5441 22.8267C15.8656 22.3794 15.9031 21.5315 16.1605 20.7136C15.3268 21.4266 14.3679 22.0629 13.6061 22.0629C13.5386 22.0624 13.4713 22.0561 13.405 22.0442C12.813 23.1038 10.6952 26.7302 8.22729 28.9564C12.6431 29.7255 15.8166 24.4718 16.6587 22.89Z" fill="#A3A2A2"/>
<path d="M14.6038 17.3105C14.5974 17.3298 14.5894 17.3485 14.5799 17.3666C14.5775 17.3776 14.574 17.3884 14.5694 17.3987C13.62 18.9898 12.9405 20.913 13.4387 21.2389C13.9056 21.5502 15.4032 20.4553 16.7299 19.104C16.6857 19.0839 16.6432 19.0603 16.6028 19.0334C15.7617 18.4781 16.0619 17.076 16.5517 15.844C15.9482 16.3904 15.2963 16.8813 14.6038 17.3105Z" fill="#A3A2A2"/>
<path d="M14.2187 56.4609C11.2734 48.4028 7.95506 40.6852 8.66167 31.7138C8.7169 30.7455 9.84352 30.7683 9.78412 31.7781C8.96182 40.4963 12.4073 48.1102 15.2828 56.0717C17.0472 55.0338 17.5204 53.3026 16.6845 50.8273C14.5261 43.3837 12.3698 36.1538 13.5579 28.0895C12.3292 29.0869 10.8482 29.8259 9.16088 29.8259C8.59224 29.8223 8.02684 29.7403 7.48085 29.582C7.17519 29.8159 6.85223 30.0265 6.51473 30.212C5.22657 30.9084 3.83106 31.0776 2.77844 31.0776C2.27475 31.0787 1.7718 31.0391 1.27454 30.9593C0.999401 31.1668 0.712795 31.364 0.417852 31.5529C0.474826 31.1917 0.538053 30.8309 0.607533 30.4704C4.59604 27.5841 6.71067 22.8576 7.54651 20.5577C7.02541 20.9531 6.46888 21.2323 5.92485 21.2323C5.72788 21.2361 5.53432 21.1807 5.36935 21.0735C5.0025 20.8317 4.87014 20.4196 4.87222 19.9318C4.87633 19.9245 4.87882 19.9163 4.87952 19.908C1.0932 25.5405 -0.323153 32.2317 0.060377 39.0578C0.719049 50.7858 6.04991 57.8485 9.92586 68.2429C12.1072 67.9595 13.2286 65.6575 12.3844 63.6492C8.70753 54.5886 3.91652 46.3987 4.12496 36.2317C4.12496 35.2623 5.2495 35.2197 5.2495 36.2317C4.9014 45.915 9.73097 54.1246 13.2463 62.7826C15.0201 61.3026 15.3443 59.1954 14.2187 56.4609Z" fill="#A3A2A2"/>
<path d="M15.0278 13.4456C14.8239 13.3871 14.626 13.3092 14.4369 13.2131C13.6136 14.2199 12.5193 15.8888 12.6318 16.7201C12.637 16.7895 12.658 16.8567 12.6932 16.9168C12.7284 16.9769 12.7769 17.0282 12.835 17.0668C13.4301 17.4643 15.7918 15.6625 17.6292 13.729C17.5552 13.6252 17.4916 13.5286 17.4416 13.4435C16.6519 13.6613 15.8178 13.662 15.0278 13.4456Z" fill="#A3A2A2"/>
<path d="M17.8594 19.0611C17.1423 20.182 16.4576 21.8354 16.9766 22.1747C17.0482 22.2179 17.1321 22.2362 17.2153 22.2266C17.2285 22.2256 17.2417 22.2256 17.2549 22.2266C17.9104 22.1446 19.1684 21.0694 20.2001 19.8509C19.7322 19.3029 19.8677 18.3273 20.1887 17.3694C19.4508 18.0866 18.6097 18.7736 17.8594 19.0611Z" fill="#A3A2A2"/>
<path d="M19.2624 14.9242C18.8632 14.7995 18.4944 14.5935 18.1795 14.3191C17.3062 15.8209 16.4505 18.0036 17.0383 18.3907C17.0973 18.4199 17.1616 18.437 17.2273 18.4407C17.2931 18.4445 17.3589 18.4349 17.4208 18.4125C17.4611 18.3925 17.5044 18.3795 17.549 18.3741C18.4307 18.0492 20.0138 16.5734 21.277 15.0176C21.277 15.0176 21.2843 15.0176 21.2853 15.0093L21.3895 14.8266C20.7166 15.1181 19.9594 15.1528 19.2624 14.9242Z" fill="#A3A2A2"/>
<path d="M18.8017 25.9252C19.9836 25.155 21.8856 22.8686 23.3405 20.9911C24.266 18.4722 23.7282 19.8951 24.266 18.4722C23.1561 19.3813 21.9044 20.2075 21.0123 20.2075C20.981 20.2075 20.9518 20.2075 20.9216 20.2023C20.3838 20.852 18.8049 22.6392 17.5105 22.9475C16.8172 24.331 15.9471 25.6194 14.9216 26.7804C15.8679 26.8364 17.5021 26.7772 18.8017 25.9252Z" fill="#A3A2A2"/>
<path d="M23.4741 15.9549C22.9267 15.9186 22.4031 15.7181 21.9723 15.3799C21.1104 16.8796 20.2808 19.0124 20.8623 19.3996C21.4011 19.7545 23.4678 18.2683 25.3 16.5039C25.4123 16.1481 25.5018 15.7855 25.5679 15.4183C25.0087 15.769 24.3621 15.957 23.7013 15.9611C23.6252 15.9611 23.5491 15.9611 23.4741 15.9549Z" fill="#A3A2A2"/>
<path d="M15.2452 12.6997C15.9865 12.8991 16.7715 12.8676 17.4943 12.6094L17.8674 12.4547L18.0091 12.8294C18.0091 12.8377 18.426 13.8507 19.4922 14.1787C20.5781 14.5149 21.291 13.997 21.2983 13.9918L21.6683 13.7168L21.8767 14.1257C21.8965 14.1641 22.4062 15.1034 23.5255 15.1771C24.502 15.2446 25.2545 14.7474 25.6683 14.3831C25.7162 12.0811 24.3791 10.2555 20.7532 9.75938C18.5653 9.46048 16.1978 10.0631 13.6506 11.5674H13.6611C13.9341 11.9151 14.4708 12.4776 15.2452 12.6997Z" fill="#A3A2A2"/>
<path d="M24.9424 20.1767C24.7589 21.4492 24.7579 22.8576 25.278 23.0766C25.897 23.336 27.0716 21.9349 27.797 20.7476C27.1383 20.3573 26.7141 19.3246 26.4588 18.429C25.5395 19.3558 25.8658 18.9396 24.9424 20.1767Z" fill="#A3A2A2"/>
<path d="M25.494 46.3502C25.4367 47.4057 25.494 48.7882 26.1808 49.6569C26.7123 50.3325 27.52 50.5526 28.3371 50.5733C28.241 49.7878 28.1923 48.9972 28.1912 48.2059V31.2968C27.1425 30.5477 26.2001 29.661 25.3898 28.6606C24.3934 29.9753 23.3978 31.292 22.4028 32.6108L22.3715 32.6534L20.9031 34.6035C20.5586 35.0526 20.3815 35.607 20.4023 36.1718C20.423 36.7366 20.6402 37.2766 21.0167 37.6995C22.2798 39.1415 23.5423 40.5827 24.804 42.0233C25.1477 42.4067 25.4016 42.8614 25.5472 43.3545C25.6929 43.8475 25.7266 44.3667 25.6461 44.8743C25.5753 45.3642 25.5169 45.8531 25.494 46.3502Z" fill="#A3A2A2"/>
<path d="M27.0808 17.7271L27.0871 17.7188C27.3695 18.8999 27.8687 20.1267 28.3638 20.135H28.37C28.937 20.135 29.4581 18.6155 29.678 17.34C29.0933 17.2974 28.4878 16.9155 27.9281 16.4059C27.9287 16.4011 27.9287 16.3962 27.9281 16.3914C27.6851 16.8602 27.4016 17.3071 27.0808 17.7271Z" fill="#A3A2A2"/>
<path d="M28.5535 21.0073C28.0866 21.7982 26.7318 23.8854 25.4269 23.8854C25.2712 23.8854 25.117 23.8544 24.9736 23.794C24.2263 23.4827 24.0356 22.4687 24.046 21.4474C23.7792 23.4671 24.2847 25.6892 25.2779 27.1993C26.0755 28.3879 27.0581 29.4425 28.1888 30.3233V23.3156H29.5634C29.1382 22.5877 28.7993 21.8131 28.5535 21.0073Z" fill="#A3A2A2"/>
<path d="M30.2071 11.6243C30.204 11.5977 30.204 11.5709 30.2071 11.5444C30.2071 11.5298 30.2071 11.5143 30.2071 11.4987C30.1706 11.4987 30.131 11.4987 30.0935 11.4987C29.8006 11.4978 29.5086 11.4665 29.2222 11.4053C29.222 11.3981 29.2202 11.391 29.217 11.3845C29.1771 12.8573 28.8589 14.3093 28.2791 15.6647C28.2842 15.662 28.2882 15.6576 28.2905 15.6523C28.9336 16.2937 29.561 16.6974 29.9945 16.5334C31.0148 16.1484 30.5865 13.0721 30.2186 11.643C30.214 11.6373 30.2101 11.631 30.2071 11.6243Z" fill="#A3A2A2"/>
<path d="M26.4834 75.9286C27.8456 67.6256 28.3156 63.8892 28.3156 63.8892C28.3531 63.7149 28.3771 63.5581 28.4052 63.4242C28.596 62.512 29.6507 62.7652 29.6726 63.6235C29.6734 63.852 29.6517 64.0801 29.6079 64.3044C28.3573 73.0869 27.9019 77.7594 27.9019 77.7594C27.0962 81.4127 32.0592 82.6976 32.3343 77.6556C32.3917 76.6115 32.4125 75.6058 32.4302 74.5596C32.5344 68.3095 32.5803 64.4839 32.5803 64.4839L32.5678 60.4559C30.4912 57.918 29.0929 54.8982 28.5032 51.6776C27.2849 51.6776 26.1061 51.3486 25.312 50.3387C24.1468 48.8566 24.2969 46.4923 24.5553 44.7228C24.6129 44.3715 24.5904 44.0119 24.4894 43.6705C24.3883 43.3291 24.2114 43.0148 23.9717 42.7508L20.1854 38.4208C19.6424 37.8085 19.3292 37.0279 19.299 36.2116C19.2688 35.3953 19.5234 34.5938 20.0197 33.9434L24.7023 27.7338C24.6773 27.6975 24.6512 27.6622 24.6273 27.6238C23.7185 26.2434 23.1911 24.314 23.214 22.4167C21.8592 24.1043 20.2959 25.8791 19.2297 26.5776C17.9791 27.3975 16.495 27.5791 15.4298 27.5791C15.1307 27.5791 14.8712 27.5646 14.6544 27.5459H14.6492C14.7094 27.7008 14.727 27.8688 14.7003 28.0327C13.3527 35.9839 15.6966 43.4005 17.8894 50.921C18.9129 50.4934 19.8884 49.4461 20.3052 48.1353C20.4811 47.5871 20.5487 47.0101 20.5043 46.4363C20.1031 43.6849 23.683 45.4254 21.7612 49.9889C19.1911 56.1311 16.4085 62.3096 14.1281 68.5565C12.9744 71.72 16.0135 72.571 17.0744 70.1642C18.9347 65.9442 20.5335 61.636 22.2135 57.3402C22.3521 56.787 23.2609 56.9645 23.0806 57.6173C21.4131 62.3469 19.8269 67.3391 18.0781 72.0189C16.9212 75.1055 20.5658 76.8378 21.4131 73.0018C22.3219 68.8793 23.7789 64.3874 24.9055 60.2359C25.1431 59.3641 26.2823 59.4471 25.9331 60.9033C23.5142 71.0132 22.5845 75.2986 22.5845 75.2986C21.3381 79.4158 26.2812 80.2057 26.4834 75.9286Z" fill="#A3A2A2"/>
<path d="M29.2273 20.5285C29.4232 21.2114 29.8922 22.4703 30.5175 23.3204H33.0188C33.5107 22.5139 33.7723 21.3422 33.8672 20.6561C32.4873 20.3572 31.0928 18.2379 30.4894 17.2114C30.3914 17.8757 30.0548 19.7179 29.2273 20.5285Z" fill="#A3A2A2"/>
<path d="M34.3531 19.8805C35.1973 19.594 35.1347 17.2941 34.8075 15.5411C34.668 15.5894 34.5216 15.6146 34.3739 15.6158C33.3005 15.6158 32.1447 14.414 31.3161 13.3325C31.4506 14.4327 31.4745 15.7528 31.0222 16.5759C31.9237 18.1711 33.4912 20.1711 34.3531 19.8805Z" fill="#A3A2A2"/>
<path d="M33.252 9.88232C32.7408 10.5211 32.0655 11.0103 31.2978 11.298C31.1847 11.3383 31.0696 11.373 30.9529 11.4018C31.9263 13.0354 33.6772 15.1454 34.5756 14.8039C35.5365 14.4407 35.2092 11.6903 34.8611 10.174C34.3088 10.2102 33.7561 10.11 33.252 9.88232Z" fill="#A3A2A2"/>
<path d="M34.5582 21.2205C34.4271 21.9443 34.2037 22.6485 33.8933 23.3159H36.2581C35.5431 22.6486 34.9407 21.81 34.5582 21.2205Z" fill="#A3A2A2"/>
<path d="M33.1824 65.2986C33.9817 65.9089 34.7457 67.3183 35.569 67.2602C36.2371 67.2135 36.6196 66.3977 36.2256 65.858C35.7399 65.1896 34.1673 65.5145 33.1824 65.2986Z" fill="#A3A2A2"/>
<path d="M34.1482 68.5654L35.0956 69.0055C36.7537 69.7766 38.0356 68.5758 38.7005 68.1129L37.7532 67.6728C36.094 66.9027 35.3603 68.4595 34.1482 68.5654Z" fill="#A3A2A2"/>
<path d="M37.2625 64.3734L36.3162 63.9333C37.0144 64.9256 36.287 66.4876 37.9462 67.2546C38.2588 67.4009 38.5788 67.5472 38.8935 67.6946C38.8227 66.8923 38.9217 65.1435 37.2625 64.3734Z" fill="#A3A2A2"/>
<path d="M39.169 13.0675C40.1226 12.7073 39.81 9.99845 39.466 8.479C39.1331 8.65579 38.7682 8.76515 38.3926 8.80078C38.0169 8.8364 37.6379 8.79759 37.2774 8.68658C36.9258 9.2794 36.379 9.73269 35.7297 9.96939C36.7261 11.548 38.3196 13.3871 39.169 13.0675Z" fill="#A3A2A2"/>
<path d="M39.5402 18.4148C40.5136 17.9997 40.1144 15.2908 39.6892 13.6676C39.6114 13.7183 39.5286 13.7611 39.4422 13.7953C39.2889 13.8545 39.1261 13.8854 38.9617 13.8866C37.8872 13.8866 36.7294 12.6847 35.9018 11.6033C36.0457 12.7719 36.0634 14.1886 35.5183 14.995C36.6356 16.6754 38.5918 18.8248 39.5402 18.4148Z" fill="#A3A2A2"/>
<path d="M34.9783 20.4169C35.4817 21.2472 36.5186 22.7002 37.5337 23.3147H39.1179C39.9381 22.5321 39.8975 20.3993 39.7547 19.158C39.6085 19.21 39.4545 19.2374 39.2992 19.2389C38.0747 19.2389 36.6677 17.7714 35.7558 16.6287C35.9006 17.9935 35.8777 19.7454 34.9783 20.4169Z" fill="#A3A2A2"/>
<path d="M27.8137 7.01778C28.66 7.76921 29.1133 9.09353 29.1988 10.6171C29.1994 10.6137 29.1994 10.6102 29.1988 10.6068C29.6355 10.7199 30.3317 10.8143 31.0279 10.5663C31.7463 10.2937 32.3643 9.80967 32.7996 9.17864L33.0081 8.84029L33.3426 9.05721C33.352 9.05721 34.2806 9.64153 35.3395 9.28658C36.4171 8.92436 36.6943 8.08783 36.6943 8.07953L36.8319 7.64051L37.2425 7.84808C37.2821 7.8678 38.2482 8.3307 39.1966 7.73807C40.2232 7.09666 40.4671 5.93632 40.5244 5.50664C34.5161 -0.955177 25.8523 -1.17728 26.0295 1.99654C21.623 2.00484 20.7038 3.94152 23.2593 7.14544C23.4052 5.61042 26.1827 5.56476 27.8137 7.01778ZM30.4494 2.22072C30.1735 2.53882 29.7978 2.75492 29.3833 2.83411C29.7366 3.89482 29.6678 4.01832 28.8726 3.18283C28.4265 2.71648 27.8294 2.39578 27.0811 2.22072C28.2039 1.39872 29.3267 1.39872 30.4494 2.22072Z" fill="#A3A2A2"/>
<path d="M37.9187 70.317C39.5789 71.0871 40.8598 69.8873 41.5257 69.4234L40.5773 68.9844C38.9181 68.2133 38.1803 69.7721 36.9734 69.877C37.285 70.0243 37.606 70.1707 37.9187 70.317Z" fill="#A3A2A2"/>
<path d="M40.7714 68.5683L41.7187 69.0073C41.6489 68.2029 41.7469 66.4541 40.0877 65.6861L39.1414 65.2471C39.8386 66.2362 39.1122 67.7982 40.7714 68.5683Z" fill="#A3A2A2"/>
<path d="M43.7554 11.3332C43.9101 11.2657 44.0364 11.1469 44.1129 10.9969C43.364 9.28062 42.3748 7.67851 41.1749 6.23828C40.9975 6.89667 40.6475 7.49627 40.1609 7.97569C41.1364 9.60204 42.8612 11.6726 43.7554 11.3332Z" fill="#A3A2A2"/>
<path d="M40.7386 71.6275C42.3977 72.3976 43.6796 71.1978 44.3446 70.7339L43.3972 70.2938C41.7391 69.5237 41.0001 71.0816 39.7922 71.1874L40.7386 71.6275Z" fill="#A3A2A2"/>
<path d="M43.5931 69.8786L44.5405 70.3177C44.4696 69.5123 44.5686 67.7634 42.9095 66.9965L41.9631 66.5564C42.6604 67.5434 41.935 69.1075 43.5931 69.8786Z" fill="#A3A2A2"/>
<path d="M43.5531 12.1479C42.4796 12.1479 41.3238 10.946 40.4963 9.85938C40.6203 10.8869 40.6495 12.1053 40.2878 12.9325C40.2958 12.9448 40.3028 12.9576 40.3087 12.9709C40.3212 13.0124 40.3431 13.083 40.3691 13.1712C41.4895 14.8484 43.3988 16.9263 44.3358 16.5236C45.2456 16.1323 44.9548 13.741 44.5661 12.1043C44.5286 12.0005 44.49 11.904 44.4514 11.8044C44.2074 12.0276 43.8875 12.1503 43.5562 12.1479H43.5531Z" fill="#A3A2A2"/>
<path d="M44.0242 75.7244L44.6183 75.4473L44.1378 74.4208L43.5458 74.698C43.4233 74.754 43.2852 74.7669 43.1543 74.7345C43.0234 74.702 42.9075 74.6262 42.8257 74.5194L42.7214 74.2963C42.6918 74.1654 42.7078 74.0283 42.7669 73.9078C42.826 73.7872 42.9247 73.6903 43.0466 73.6331L43.6438 73.357L43.1623 72.3306L42.5662 72.6066C42.2456 72.7568 41.9788 73.001 41.8018 73.3066C41.6248 73.6122 41.546 73.9645 41.5761 74.316L40.8465 74.6533C40.5953 74.4043 40.2736 74.238 39.9245 74.1768C39.5755 74.1155 39.216 74.1623 38.8945 74.3108L38.1055 74.6762C37.7851 74.8265 37.5185 75.0708 37.3416 75.3764C37.1646 75.6819 37.0857 76.0341 37.1154 76.3855L36.3859 76.7239C36.1348 76.4751 35.8133 76.3088 35.4645 76.2474C35.1157 76.1859 34.7564 76.2324 34.4349 76.3804L33.6449 76.7467C33.2511 76.9519 32.9519 77.3004 32.8095 77.7197C32.6671 78.1389 32.6926 78.5967 32.8805 78.9978C33.0685 79.3989 33.4045 79.7124 33.8186 79.873C34.2327 80.0337 34.6931 80.0291 35.104 79.8604L35.8929 79.494C36.2134 79.3439 36.48 79.0998 36.657 78.7944C36.834 78.489 36.9129 78.137 36.883 77.7856L37.6126 77.4473C37.8634 77.6962 38.1848 77.8625 38.5334 77.9239C38.882 77.9853 39.2412 77.9389 39.5625 77.7908L40.3515 77.4245C40.6722 77.2745 40.939 77.0302 41.116 76.7246C41.2931 76.4189 41.3718 76.0666 41.3416 75.7151L42.0711 75.3778C42.3221 75.6274 42.6438 75.7945 42.993 75.8564C43.3422 75.9184 43.7021 75.8724 44.0242 75.7244ZM35.4167 78.4717L34.6277 78.838C34.5571 78.8734 34.4802 78.8943 34.4013 78.8994C34.3225 78.9046 34.2434 78.8939 34.1688 78.8681C34.0942 78.8422 34.0256 78.8017 33.967 78.749C33.9084 78.6962 33.861 78.6322 33.8277 78.5609C33.7944 78.4896 33.7759 78.4123 33.7731 78.3337C33.7704 78.2551 33.7835 78.1767 33.8118 78.1032C33.84 78.0297 33.8828 77.9627 33.9375 77.906C33.9923 77.8493 34.058 77.8041 34.1306 77.7732L34.9185 77.4068C35.0599 77.3437 35.2206 77.3384 35.3658 77.3923C35.511 77.4462 35.6292 77.5548 35.6946 77.6947C35.76 77.8346 35.7676 77.9946 35.7156 78.1399C35.6636 78.2853 35.5562 78.4045 35.4167 78.4717ZM39.8752 76.4011L39.0852 76.7675C38.9628 76.8241 38.8247 76.8373 38.6937 76.805C38.5628 76.7728 38.4468 76.6969 38.365 76.59L38.2608 76.3658C38.2316 76.2351 38.2478 76.0983 38.3069 75.978C38.366 75.8577 38.4644 75.761 38.586 75.7037L39.3749 75.3363C39.4451 75.3035 39.5211 75.2849 39.5986 75.2815C39.676 75.278 39.7534 75.2898 39.8263 75.3161C39.8991 75.3424 39.9661 75.3827 40.0233 75.4348C40.0805 75.4869 40.1269 75.5497 40.1597 75.6196C40.1926 75.6895 40.2113 75.7652 40.2147 75.8423C40.2182 75.9194 40.2064 75.9965 40.18 76.069C40.1536 76.1416 40.1131 76.2083 40.0608 76.2653C40.0085 76.3222 39.9454 76.3684 39.8752 76.4011Z" fill="#A3A2A2"/>
<path d="M34.5822 83.6317C35.5077 83.6317 38.7396 83.1854 38.7688 84.3125C38.4363 87.3027 27.7579 82.7391 25.4286 80.7578L26.4083 83.8299L23.1628 83.4044C25.76 85.6088 38.7719 91.1386 38.7719 87.7178V84.9041C40.8553 85.2119 42.9533 85.4132 45.0574 85.5071V82.106C41.5371 81.9594 38.0342 81.5325 34.5822 80.8294C32.7375 80.8294 32.7375 83.6317 34.5822 83.6317Z" fill="#A3A2A2"/>
<path d="M40.1756 23.1686C40.1985 23.2132 40.2298 23.2641 40.26 23.3149H45.1729C45.1668 22.8324 45.132 22.3507 45.0687 21.8723C44.8282 21.9672 44.5718 22.0158 44.3131 22.0155C42.9583 22.0155 41.5158 20.8168 40.606 19.8972C40.6612 20.8853 40.6196 22.2003 40.1672 23.1551C40.1698 23.1597 40.1726 23.1643 40.1756 23.1686Z" fill="#A3A2A2"/>
<path d="M44.0904 17.348C42.9638 17.348 41.683 16.1026 40.7762 15.019C40.9784 16.2645 41.0493 17.7642 40.4719 18.6049C41.3755 19.6718 43.5308 21.759 44.8638 21.1166C46.1696 20.4866 45.7757 17.8255 45.414 16.4461C45.264 16.7962 44.9877 17.0776 44.6397 17.2349C44.4663 17.3096 44.2794 17.3481 44.0904 17.348Z" fill="#A3A2A2"/>
<path d="M45.7566 21.4212C45.7827 21.4639 45.8004 21.5111 45.8087 21.5603C45.9012 22.1408 45.9545 22.7267 45.9682 23.3143H48.4173C48.2181 23.1918 48.0347 23.0454 47.8712 22.8784C47.1271 22.1073 46.8478 20.9812 47.0864 19.7087C47.1984 19.1625 47.3868 18.6346 47.6461 18.1405V18.1343C47.4783 18.2499 47.2799 18.3134 47.0759 18.3169C46.8719 18.3204 46.6714 18.2637 46.4997 18.154C46.6112 19.3237 46.5174 20.6553 45.7566 21.4212Z" fill="#A3A2A2"/>
<path d="M50.1892 22.9274C50.4629 22.8899 50.7259 22.7968 50.9619 22.654C51.198 22.5112 51.4022 22.3217 51.5618 22.0971C51.2675 21.4924 51.1275 20.8247 51.1543 20.1532C51.1783 18.8299 51.9005 17.5751 52.5311 16.7282C52.2061 16.7807 51.8775 16.8071 51.5483 16.8071C50.98 16.7957 50.43 16.6049 49.9777 16.2622C49.4368 16.8227 48.1538 18.2913 47.8578 19.8553C47.6661 20.8735 47.8714 21.7578 48.4373 22.3462C48.6609 22.5763 48.9368 22.7492 49.2418 22.8504C49.5468 22.9516 49.8718 22.978 50.1892 22.9274Z" fill="#A3A2A2"/>
<path d="M51.366 23.3156H52.6812C52.4846 23.1996 52.303 23.0602 52.1403 22.9004C52.1007 22.8599 52.058 22.8132 52.0163 22.7676C51.8285 22.9818 51.6092 23.1666 51.366 23.3156Z" fill="#A3A2A2"/>
<path d="M51.5468 16.0279C52.1462 16.0383 52.7419 15.9326 53.3008 15.7165C53.0924 15.1073 52.9788 14.1773 53.4571 13.0305C53.6802 12.521 53.991 12.0542 54.3753 11.6511C54.1032 11.6287 53.8352 11.5711 53.578 11.4799C53.0267 11.2869 52.4723 10.6942 52.1419 9.9729C51.4853 10.5531 49.9908 12.0217 49.7677 13.5608C49.6562 14.3372 49.7969 14.9568 50.1846 15.402C50.3565 15.5938 50.5661 15.7483 50.8004 15.8559C51.0347 15.9636 51.2888 16.0221 51.5468 16.0279Z" fill="#A3A2A2"/>
<path d="M49.1861 81.4714H48.9714L49.1861 81.4662V79.8949H52.3867L54.5618 80.5456V77.5783L52.3867 78.228H50.0792V67.5493C49.44 67.6261 48.7932 67.6714 48.1387 67.6853V78.228H47.3737V67.6853C46.7178 67.6714 46.0706 67.6261 45.4321 67.5493V78.228H43.1298L40.9558 77.5783V80.5487L43.1298 79.8949H46.3304V87.6582L45.2705 89.8252H50.2512L49.1913 87.6582L49.1861 81.4714Z" fill="#A3A2A2"/>
<path d="M51.934 20.1658C51.9152 21.3324 52.3342 21.9966 52.6906 22.3454C52.8726 22.5301 53.0902 22.6763 53.3304 22.7751C53.5706 22.8739 53.8283 22.9233 54.0882 22.9204C55.2732 22.8903 55.7682 21.869 55.7734 21.8586C55.7786 21.8482 55.787 21.843 55.7932 21.8327C55.5487 21.3061 55.4302 20.7302 55.4472 20.1503C55.4629 19.2546 55.8704 18.2966 56.3675 17.4518C56.1643 17.4922 55.9577 17.5131 55.7505 17.5141C55.4785 17.5139 55.2074 17.4822 54.9428 17.4196C54.4801 17.3158 54.0382 16.9816 53.7078 16.5156C53.145 17.1477 51.96 18.6453 51.934 20.1658Z" fill="#A3A2A2"/>
<path d="M56.2603 22.5532C56.0375 22.8585 55.7567 23.1174 55.4338 23.315H57.2056C56.8476 23.119 56.5275 22.8611 56.2603 22.5532Z" fill="#A3A2A2"/>
<path d="M57.6288 67.4237L57.2911 66.8176L51.239 70.1669L51.954 70.5633L57.6288 67.4237Z" fill="#A3A2A2"/>
<path d="M53.8379 10.7457C54.8051 11.0851 55.4419 10.6876 55.4679 10.6699C55.477 10.6653 55.4864 10.6615 55.4961 10.6585C56.0316 10.2629 56.6016 9.91557 57.199 9.62064C57.2057 8.90614 57.3993 8.20572 57.7608 7.58848C57.8342 7.45873 57.9146 7.33297 58.0015 7.21173C57.8549 7.19811 57.7105 7.16746 57.5711 7.1204C57.1542 6.97302 56.7769 6.56098 56.5716 6.01921C56.4442 5.67355 56.3906 5.30521 56.4142 4.93774C55.5075 5.22212 53.6805 5.93514 52.9635 7.22107C52.7634 7.56194 52.6434 7.94347 52.6123 8.33709C52.5813 8.73071 52.6401 9.12622 52.7843 9.49402C53.0375 10.1603 53.5065 10.6295 53.8379 10.7457Z" fill="#A3A2A2"/>
<path d="M58.725 69.3802L58.3874 68.7751L53.5588 71.4456L54.2748 71.841L58.725 69.3802Z" fill="#A3A2A2"/>
<path d="M57.4081 10.692C57.3751 10.6074 57.3466 10.5212 57.3227 10.4336C56.5379 10.8487 54.7724 11.9053 54.1804 13.3282C53.6843 14.5176 53.972 15.3926 54.1804 15.8088C54.4118 16.2571 54.7714 16.5851 55.1184 16.666C56.3274 16.9483 57.1038 16.3412 57.1111 16.335H57.1184C57.4484 15.8897 57.8044 15.4641 58.1846 15.0604C58.1846 15.0272 58.1846 14.9961 58.1908 14.9629C58.3096 13.925 59.1059 12.8114 59.7656 12.0496C59.653 12.0599 59.5415 12.0672 59.431 12.0672C59.199 12.0697 58.9678 12.0396 58.7442 11.978C58.1585 11.8015 57.6708 11.3345 57.4081 10.692Z" fill="#A3A2A2"/>
<path d="M57.83 6.38663C58.473 6.61185 59.0483 6.14791 59.0535 6.14376H59.0629C59.8013 5.58316 60.6139 5.12669 61.4777 4.78726C60.7576 4.04291 60.0956 3.24489 59.4975 2.40015C59.0222 2.59112 58.0082 3.09033 57.486 4.02235C57.0494 4.80075 57.1838 5.44008 57.3005 5.75145C57.4391 6.10848 57.6663 6.32954 57.83 6.38663Z" fill="#A3A2A2"/>
<path d="M60.7444 21.8184C60.5861 21.3785 60.5053 20.9146 60.5057 20.4473C60.5057 19.6108 60.8111 18.739 61.2082 17.9626C61.045 17.9996 60.8783 18.0191 60.711 18.0208C60.5451 18.0204 60.3796 18.0037 60.217 17.971C59.7597 17.8618 59.3397 17.6336 59 17.3097C58.6603 16.9859 58.4131 16.5779 58.2837 16.1277C57.5459 17.0026 56.2567 18.7338 56.2327 20.1661C56.1993 22.2055 57.8168 22.85 58.4432 22.9258C58.894 22.9923 59.3546 22.9223 59.765 22.7248C60.1754 22.5274 60.5166 22.2115 60.7444 21.8184Z" fill="#A3A2A2"/>
<path d="M57.4229 66.2557C57.723 66.4353 58.1524 66.6231 58.6381 66.3595L59.0029 66.1571C58.71 66.1519 58.4714 65.9329 58.1889 65.8364L58.512 65.6569C58.8132 65.8364 59.2415 66.0243 59.7272 65.7606L60.093 65.5531C59.8002 65.5531 59.5605 65.3279 59.277 65.2313L59.6001 65.0528C59.9013 65.2324 60.3296 65.4202 60.8163 65.1566L61.1821 64.9542C60.8882 64.949 60.6506 64.73 60.3671 64.6335L60.7225 64.4363L60.76 64.4145C61.0112 64.2609 61.229 63.8375 61.4729 63.6226C61.1311 63.7264 60.5943 63.6683 60.3525 63.8489L60.0263 64.0295C60.0941 63.7378 60.0315 63.4182 60.1837 63.167L59.8189 63.3683C59.3312 63.6372 59.2676 64.1032 59.2603 64.4529L58.9362 64.6314C59.006 64.3398 58.9424 64.0201 59.0956 63.769L58.7288 63.9765C58.2431 64.2453 58.1774 64.7103 58.1722 65.0601L57.8471 65.2396C57.9169 64.948 57.8533 64.6283 58.0055 64.3761L57.6397 64.5785C57.1551 64.8473 57.0894 65.3133 57.0831 65.6631L50.0764 69.5375L50.7935 69.9329L57.4229 66.2557Z" fill="#A3A2A2"/>
<path d="M61.1372 22.6038C60.9027 22.8858 60.6205 23.125 60.3035 23.3106H61.7761C61.5317 23.1051 61.3167 22.8673 61.1372 22.6038Z" fill="#A3A2A2"/>
<path d="M61.1204 65.9807C61.1882 65.6891 61.1204 65.3694 61.2778 65.1172L60.913 65.3248C60.4263 65.5936 60.3607 66.0596 60.3544 66.4093L60.0303 66.5879C60.1001 66.2962 60.0366 65.9765 60.1877 65.7254L59.8229 65.933C59.3372 66.2018 59.2726 66.6667 59.2664 67.0165L58.9412 67.195C59.011 66.9044 58.9475 66.5837 59.0996 66.3325L58.7338 66.5349C58.2471 66.8037 58.1825 67.2687 58.1773 67.6195L52.3972 70.8162L53.1132 71.2116L58.517 68.2225C58.8172 68.4031 59.2466 68.591 59.7312 68.3263L60.097 68.1239C59.8031 68.1187 59.5644 67.8997 59.282 67.8032L59.6051 67.6237C59.9063 67.8032 60.3346 67.9911 60.8203 67.7274L61.1851 67.5199C60.8922 67.5199 60.6546 67.2957 60.3701 67.1992L60.6931 67.0207C60.9943 67.2002 61.4227 67.3881 61.9094 67.1244L62.2742 66.9221C61.9823 66.9169 61.7437 66.6979 61.4612 66.6003L61.8146 66.4042C61.8282 66.3977 61.8414 66.3904 61.8542 66.3824C62.1043 66.2288 62.3231 65.8063 62.567 65.5905C62.2252 65.6942 61.6874 65.6361 61.4467 65.8157L61.1204 65.9807Z" fill="#A3A2A2"/>
<path d="M60.3708 17.2074C61.242 17.3849 61.8549 16.8203 61.958 16.7175C62.2562 16.2851 62.5821 15.8722 62.9335 15.4814C62.101 14.3394 61.6391 12.9712 61.6099 11.5603C61.4734 11.6153 61.3171 11.6734 61.1482 11.7316C60.8356 12.0305 59.1316 13.6911 58.9753 15.0465C58.797 16.5525 59.9226 17.1181 60.3708 17.2074Z" fill="#A3A2A2"/>
<path d="M57.409 74.6759L56.6211 74.3106C56.2996 74.1621 55.9401 74.1153 55.5911 74.1765C55.242 74.2378 54.9203 74.4041 54.6691 74.6531L53.9395 74.3158C53.9696 73.9643 53.8908 73.612 53.7138 73.3064C53.5368 73.0008 53.27 72.7565 52.9494 72.6064L52.3533 72.3303L51.8739 73.3568L52.469 73.6329C52.5907 73.6903 52.6892 73.7872 52.7485 73.9077C52.8078 74.0281 52.8242 74.1651 52.7952 74.2961L52.691 74.5192C52.6095 74.6262 52.4938 74.7022 52.363 74.7347C52.2322 74.7671 52.0942 74.7541 51.9719 74.6977L51.3778 74.4206L50.8953 75.4471L51.4914 75.7242C51.8129 75.8723 52.1722 75.9188 52.5211 75.8574C52.8699 75.796 53.1914 75.6296 53.4424 75.3806L54.1719 75.7179C54.1414 76.0695 54.22 76.422 54.3971 76.7277C54.5742 77.0334 54.8412 77.2776 55.162 77.4273L55.951 77.7937C56.2723 77.9418 56.6315 77.9882 56.9801 77.9268C57.3288 77.8654 57.6501 77.699 57.9009 77.4502L58.6305 77.7885C58.6008 78.1398 58.6798 78.4918 58.8567 78.7972C59.0337 79.1025 59.3002 79.3467 59.6206 79.4969L60.4095 79.8632C60.6163 79.971 60.8429 80.0358 61.0756 80.0539C61.3082 80.072 61.5422 80.043 61.7632 79.9685C61.9843 79.8941 62.188 79.7758 62.3618 79.6208C62.5357 79.4658 62.6763 79.2773 62.775 79.0667C62.8736 78.8561 62.9285 78.6277 62.9361 78.3954C62.9437 78.1631 62.9039 77.9317 62.8192 77.7152C62.7345 77.4986 62.6066 77.3014 62.4432 77.1354C62.2798 76.9695 62.0843 76.8382 61.8686 76.7496L61.0807 76.3832C60.7592 76.2352 60.3999 76.1888 60.0511 76.2502C59.7023 76.3116 59.3808 76.4779 59.1297 76.7268L58.4002 76.3884C58.4306 76.0363 58.352 75.6833 58.1747 75.3771C57.9975 75.0709 57.7303 74.8262 57.409 74.6759ZM57.2506 76.3656L57.1464 76.5898C57.0649 76.6967 56.9491 76.7727 56.8183 76.805C56.6875 76.8372 56.5495 76.8239 56.4273 76.7672L55.6373 76.4009C55.4955 76.3349 55.3858 76.2156 55.3323 76.0692C55.2789 75.9227 55.286 75.7611 55.3522 75.6199C55.4184 75.4787 55.5383 75.3694 55.6853 75.3162C55.8324 75.263 55.9947 75.2701 56.1365 75.336L56.9254 75.7034C57.0471 75.7606 57.1457 75.8573 57.2048 75.9777C57.2639 76.098 57.28 76.2348 57.2506 76.3656ZM59.8061 77.691C59.8724 77.5499 59.9921 77.4408 60.139 77.3875C60.2859 77.3342 60.448 77.3411 60.5898 77.4066L61.3788 77.7729C61.4501 77.8048 61.5144 77.8505 61.5678 77.9073C61.6213 77.9641 61.6628 78.0309 61.6901 78.1039C61.7174 78.1768 61.7299 78.2545 61.7268 78.3323C61.7237 78.41 61.7051 78.4864 61.6721 78.557C61.639 78.6276 61.5923 78.6909 61.5345 78.7433C61.4767 78.7957 61.409 78.8362 61.3353 78.8623C61.2617 78.8884 61.1835 78.8997 61.1055 78.8955C61.0274 78.8913 60.951 78.8717 60.8806 78.8378L60.0906 78.4714C59.9492 78.4052 59.8399 78.2859 59.7866 78.1397C59.7332 77.9934 59.7403 77.8321 59.8061 77.691Z" fill="#A3A2A2"/>
<path d="M58.445 7.97011C57.9646 8.82636 57.851 9.71167 58.1324 10.3998C58.3074 10.8222 58.6107 11.1263 58.9661 11.2301C59.4768 11.3785 60.1959 11.2301 60.8067 11.0287C61.0937 10.9337 61.3752 10.8229 61.6498 10.6966C61.7492 9.91949 62.0026 9.16976 62.3953 8.49095C62.788 7.81213 63.3122 7.21775 63.9374 6.74231C63.277 6.35684 62.6612 5.9002 62.1011 5.38062C61.4268 5.62555 59.2673 6.50048 58.445 7.97011Z" fill="#A3A2A2"/>
<path d="M62.9509 68.3245C63.1999 68.1709 63.4198 67.7485 63.6627 67.5326C63.3219 67.6364 62.7841 67.5783 62.5434 67.7578L62.2161 67.9394C62.2838 67.6468 62.2161 67.3281 62.3745 67.0759L62.0087 67.2835C61.522 67.5523 61.4563 68.0173 61.4501 68.3681L61.127 68.5466C61.1947 68.255 61.1333 67.9353 61.2844 67.6841C61.1624 67.7505 61.0415 67.819 60.9186 67.8855C60.4329 68.1543 60.3672 68.6203 60.361 68.9701L60.0369 69.1486C60.1067 68.858 60.0431 68.5373 60.1953 68.2861L59.8305 68.4885C59.3438 68.7573 59.2781 69.2223 59.2729 69.572L54.7185 72.0909L55.4355 72.4864L59.6127 70.1771C59.9128 70.3556 60.3422 70.5445 60.8269 70.2757C60.9488 70.2082 61.0718 70.1418 61.1916 70.0744C60.8988 70.0692 60.6601 69.8502 60.3777 69.7526L60.7007 69.5741C61.003 69.7536 61.4303 69.9415 61.916 69.6779L62.2807 69.4703C61.9879 69.4703 61.7513 69.2461 61.4668 69.1496L61.7898 68.9701C62.091 69.1506 62.5194 69.3385 63.0051 69.0738L63.3698 68.8715C63.078 68.8663 62.8393 68.6473 62.5569 68.5497L62.9113 68.3536L62.9509 68.3245Z" fill="#A3A2A2"/>
<path d="M64.1324 16.7982C63.8802 16.5809 63.6431 16.3468 63.4226 16.0977C63.0058 16.5782 61.2747 18.6789 61.283 20.4443C61.2903 21.7126 61.9083 22.4162 62.2762 22.7193C62.7494 23.1127 63.2059 23.1998 63.4466 23.1583C63.7426 23.1102 64.0242 22.9971 64.2709 22.8273C64.5177 22.6575 64.7235 22.4352 64.8734 22.1765C64.7014 20.4588 65.3757 18.5107 65.6727 17.7562C65.117 17.5098 64.5985 17.1874 64.1324 16.7982Z" fill="#A3A2A2"/>
<path d="M47.7618 41.8964C48.039 41.8175 49.0354 41.5186 49.2209 41.3899C49.3428 41.3079 49.3063 41.2207 48.977 41.146C48.0557 40.9634 47.5179 40.7184 47.348 39.9141C47.0239 40.4589 46.0234 41.6016 45.1594 42.2254C45.7076 42.1216 47.3574 41.2778 47.667 41.0744C47.4231 41.8528 47.3585 42.0126 47.7618 41.8964Z" fill="#A3A2A2"/>
<path d="M43.3385 41.781L41.5907 43.0037C43.6056 42.6397 45.4218 41.3988 47.0393 39.2808C47.3801 39.1345 47.7558 39.088 48.1222 39.1469C50.7777 39.4718 50.9434 41.6721 55.5645 41.7717V35.0193H39.9451V41.781L41.6428 40.4318L43.3385 41.781ZM51.2113 37.5662C51.2103 37.9311 51.0922 38.2861 50.8741 38.5793C50.656 38.8725 50.3494 39.0885 49.9992 39.1957C49.4462 38.8679 48.8308 38.6583 48.192 38.5802C47.718 38.5086 47.2333 38.5726 46.7944 38.765C46.5182 38.8947 46.4265 39.2694 46.0044 39.2694C45.5512 39.268 45.1168 39.0882 44.7962 38.7691C44.4756 38.45 44.2948 38.0176 44.2931 37.5662H51.2113Z" fill="#A3A2A2"/>
<path d="M55.5677 45.0947V43.6863H39.9451V45.0947C39.9451 49.35 43.4833 52.8725 47.7553 52.8725C52.0273 52.8725 55.5677 49.3489 55.5677 45.0947ZM50.8423 49.0843C50.119 49.0843 49.5323 48.5788 49.5323 47.954H52.1545C52.1586 48.5788 51.5719 49.0843 50.8423 49.0843ZM53.699 45.843C53.699 46.4657 53.1122 46.9732 52.389 46.9732C51.6657 46.9732 51.0768 46.4667 51.0768 45.843H53.699ZM50.6078 45.843C50.6078 46.4657 50.0211 46.9732 49.2978 46.9732C48.5745 46.9732 47.9857 46.4667 47.9857 45.843H50.6078ZM41.8044 45.843H44.4265C44.4265 46.4657 43.8398 46.9732 43.1165 46.9732C42.3932 46.9732 41.8085 46.4667 41.8085 45.843H41.8044ZM44.661 49.0843C43.9315 49.0843 43.351 48.5788 43.351 47.954H45.9721C45.9763 48.5788 45.3895 49.0843 44.6652 49.0843H44.661ZM44.9018 45.843H47.524C47.524 46.4657 46.9372 46.9732 46.2129 46.9732C45.4885 46.9732 44.9018 46.4667 44.9018 45.843ZM46.4474 47.954H49.0706C49.0706 48.5767 48.4838 49.0843 47.7585 49.0843C47.0331 49.0843 46.4442 48.5788 46.4442 47.954H46.4474Z" fill="#A3A2A2"/>
<path d="M36.2278 53.5097C36.1705 53.7173 36.8386 54.0743 37.0157 54.121C37.5139 54.2549 37.7161 53.5056 37.2158 53.3717C37.0397 53.326 36.282 53.3022 36.2278 53.5097Z" fill="#A3A2A2"/>
<path d="M38.7813 54.6865C38.8978 54.6194 38.9918 54.5194 39.0512 54.3991C39.1106 54.2788 39.1329 54.1437 39.1152 54.0108C39.0975 53.8779 39.0407 53.7532 38.9518 53.6525C38.8629 53.5518 38.7461 53.4796 38.616 53.445C38.4859 53.4105 38.3485 53.4151 38.2211 53.4583C38.0937 53.5016 37.982 53.5815 37.9001 53.6879C37.8183 53.7944 37.77 53.9226 37.7614 54.0564C37.7528 54.1902 37.7842 54.3235 37.8516 54.4395C37.8963 54.5166 37.9558 54.5842 38.0268 54.6383C38.0977 54.6925 38.1787 54.7321 38.265 54.7551C38.3514 54.778 38.4414 54.7838 38.53 54.772C38.6186 54.7603 38.704 54.7312 38.7813 54.6865Z" fill="#A3A2A2"/>
<path d="M38.0922 52.7222C38.0005 52.5645 37.4804 52.0154 37.296 52.1223C37.1115 52.2292 37.3262 52.9526 37.4169 53.1104C37.6753 53.5567 38.3517 53.1685 38.0922 52.7222Z" fill="#A3A2A2"/>
<path d="M39.1701 52.8795C39.2181 52.7041 39.24 51.9454 39.0315 51.8935C38.8231 51.8416 38.4646 52.5038 38.4177 52.6781C38.2874 53.1763 39.0399 53.3777 39.1701 52.8795Z" fill="#A3A2A2"/>
<path d="M66.3346 48.1796V24.2981H29.177V48.1796C29.177 58.357 37.5355 66.6808 47.7553 66.6808C57.9751 66.6808 66.3346 58.357 66.3346 48.1796ZM53.0309 62.6206C53.0052 62.0429 53.3974 61.7709 54.2076 61.8048C54.5598 60.3705 54.7565 59.4046 54.7974 58.9071C54.4079 58.93 54.0216 58.8243 53.6986 58.6062C53.3756 58.3881 53.1339 58.07 53.0111 57.7011C53.346 55.5942 53.7976 54.3169 54.366 53.8692C54.8808 53.8838 55.3957 53.8838 55.9105 53.8692C57.1705 55.8609 56.9527 57.5361 56.9329 59.7665C56.4723 60.3013 55.6989 61.2136 54.613 62.5033L53.0309 62.6206ZM53.3436 58.7234C53.6723 58.9439 54.0314 59.1155 54.4097 59.233C54.2221 60.4688 54.128 61.0866 54.1273 61.0866C53.6736 60.3757 53.4042 59.5636 53.3436 58.7234ZM54.3191 52.9113L54.8308 53.2725L55.1268 52.6176L55.4207 53.2725L55.9345 52.9113L55.9189 53.6378H54.3337L54.3191 52.9113ZM57.2372 49.9098H57.9918L57.8553 50.6435L58.5931 50.5086V51.26L57.8553 51.1251L57.9918 51.8589H57.2372L57.3706 51.1251L56.6411 51.26V50.5086L57.3706 50.6435L57.2372 49.9098ZM57.6166 53.0389C57.525 53.0389 57.4355 53.0119 57.3594 52.9612C57.2833 52.9105 57.224 52.8385 57.189 52.7542C57.154 52.67 57.1449 52.5773 57.1628 52.4878C57.1808 52.3984 57.2249 52.3163 57.2898 52.2519C57.3546 52.1875 57.4371 52.1437 57.527 52.126C57.6168 52.1084 57.7099 52.1177 57.7944 52.1527C57.8789 52.1877 57.9511 52.247 58.0019 52.3229C58.0526 52.3988 58.0795 52.488 58.0793 52.5792C58.0793 52.6396 58.0674 52.6995 58.0441 52.7554C58.0208 52.8112 57.9867 52.8619 57.9437 52.9046C57.9008 52.9474 57.8497 52.9812 57.7936 53.0043C57.7375 53.0273 57.6773 53.0391 57.6166 53.0389ZM57.8772 53.2943V59.7208H57.3561V53.2943H57.8772ZM56.2336 62.4815C56.0877 62.1473 56.2128 61.8969 56.6088 61.7301C55.9678 60.6248 57.6322 59.6004 58.6119 60.7732C57.8697 61.4099 57.0736 61.9815 56.2326 62.4815H56.2336ZM60.6504 58.6902C60.5824 58.6307 60.5293 58.5561 60.4954 58.4725C60.4616 58.3889 60.4479 58.2985 60.4556 58.2086C60.4931 57.7789 60.8881 57.781 61.0215 57.3783C61.1549 56.9756 60.836 56.5968 60.3836 56.931L59.751 57.396C59.7589 57.1029 59.8498 56.818 60.0131 56.574C60.1764 56.3301 60.4056 56.1371 60.6742 56.0171C60.9429 55.8972 61.2401 55.8552 61.5316 55.8961C61.8231 55.9369 62.0972 56.059 62.3221 56.2481C61.8371 57.1091 61.2773 57.9262 60.6494 58.6902H60.6504ZM63.75 50.4121C63.5822 51.562 62.442 51.5807 61.5374 51.7696C61.2121 51.8265 60.8977 51.9337 60.6056 52.0872C60.1585 52.3384 59.7719 53.041 60.293 53.3254C60.8766 53.644 61.1861 52.8355 61.7771 52.6124C62.4795 52.3467 63.0069 52.93 63.4248 53.8433C63.233 54.3519 63.0763 54.7352 62.9548 54.9933C62.8724 54.7764 62.739 54.3581 62.5785 54.0062C61.9803 52.7006 61.8146 53.8879 61.4238 54.4505C60.9923 55.0732 60.3367 55.7118 59.4571 56.3664C59.1438 57.2977 58.7741 57.9979 58.3482 58.467C58.3336 57.2112 58.3336 55.9557 58.3482 54.7006C58.8443 54.2854 59.1017 53.6181 59.2747 53.014C59.4165 52.4951 59.4373 52.3187 59.9001 51.9014C60.3169 51.534 60.8276 51.3441 61.4186 51.2206C61.8354 51.1344 62.6692 51.0576 62.9819 50.7681C63.1008 50.6522 63.1746 50.4981 63.1903 50.3332C63.3008 49.56 62.1158 49.3348 61.5603 49.2403C61.1434 49.1687 60.6463 49.0442 60.3764 48.6892C59.8823 48.0374 60.4722 47.0743 60.8547 46.5221C61.1059 46.1578 61.5686 46.4765 61.3164 46.8397C61.1205 47.1251 60.5462 47.9814 60.8245 48.3519C60.985 48.5595 61.4092 48.6467 61.6583 48.6882C61.8837 48.7255 62.107 48.7743 62.3274 48.8345C63.0882 49.0483 63.8813 49.4956 63.7489 50.4121H63.75ZM60.0137 28.5108C61.5207 28.4444 61.3102 27.3972 60.5952 27.3245C61.5405 26.7807 62.1252 27.6899 62.0116 28.5648C62.8901 28.4506 63.8031 29.0339 63.2622 29.9753C63.1882 29.2633 62.1377 29.0526 62.0699 30.5534C65.8219 30.6032 63.7583 36.3655 64.3972 39.4168C63.7208 39.1148 63.2653 38.6716 63.3018 37.6213L63.4394 33.6068C63.4623 32.8201 62.9954 32.764 62.9381 33.1086C62.8651 34.2721 62.8339 36.3945 62.7536 37.9347C62.0762 37.6327 61.8469 37.2612 61.8823 36.2108L61.9938 32.6364C62.0168 31.8486 61.5499 31.7926 61.4936 32.1382C61.4196 33.3017 61.4113 35.0681 61.3393 36.4879C60.663 36.1859 60.4295 35.8517 60.4681 34.8014L60.5316 32.1963C60.5546 31.4096 60.1544 31.2425 59.8678 31.5279C59.7621 31.6566 59.6735 31.7982 59.6041 31.9493C58.5619 34.0811 56.465 32.0064 58.614 30.9633C58.7655 30.8938 58.9077 30.8056 59.0371 30.7008C59.3237 30.4153 59.1559 30.0158 58.3649 30.0396L55.75 30.104C54.6953 30.1403 54.3587 29.9078 54.0575 29.2342C55.4822 29.1626 57.256 29.1543 58.4233 29.0806C58.7703 29.0246 58.714 28.5617 57.923 28.5824L54.3337 28.6935C53.28 28.7309 52.9048 28.5005 52.6036 27.8269C54.1482 27.749 56.2805 27.7158 57.4488 27.6432C57.7959 27.5861 57.7385 27.1242 56.9486 27.144L52.9173 27.2841C51.8626 27.3204 51.4176 26.8689 51.1153 26.1933C54.1773 26.8316 59.9647 24.7714 60.0137 28.5108ZM35.2093 29.583C35.2741 29.6474 35.3183 29.7295 35.3363 29.8189C35.3542 29.9083 35.3452 30.001 35.3102 30.0853C35.2752 30.1696 35.2159 30.2416 35.1398 30.2923C35.0636 30.343 34.9741 30.3701 34.8825 30.3701C34.791 30.3701 34.7014 30.343 34.6253 30.2923C34.5492 30.2416 34.4899 30.1696 34.4549 30.0853C34.4199 30.001 34.4108 29.9083 34.4288 29.8189C34.4468 29.7295 34.491 29.6474 34.5558 29.583C34.5987 29.5402 34.6496 29.5063 34.7057 29.4831C34.7617 29.4599 34.8218 29.448 34.8825 29.448C34.9432 29.448 35.0033 29.4599 35.0594 29.4831C35.1155 29.5063 35.1664 29.5402 35.2093 29.583ZM32.7226 28.2887L33.2562 27.7573L33.6824 28.3707L34.1066 27.7573L34.6392 28.2887L34.0232 28.7122L34.6392 29.1356L34.1066 29.6629L33.6824 29.0495L33.2562 29.6629L32.7226 29.1325L33.3385 28.7091L32.7226 28.2887ZM30.757 28.57C31.0527 28.5293 31.3538 28.5786 31.6208 28.7117C31.8877 28.8447 32.108 29.0551 32.2525 29.3152C32.3625 29.5108 32.4166 29.7326 32.4089 29.9566C32.3984 30.8326 31.6574 31.667 31.4709 32.544C31.4042 32.8741 31.3781 33.2705 31.5084 33.5912C31.5392 33.6835 31.5912 33.7674 31.6603 33.836C31.7295 33.9047 31.8138 33.9563 31.9065 33.9867C32.4495 34.1268 32.8445 33.3141 33.1051 32.9415C33.7669 31.9991 34.4307 31.2487 36.3223 29.9576C35.8294 27.5705 37.3823 24.8025 39.5594 26.653C39.47 27.1015 39.2268 27.5051 38.8716 27.7947C39.0575 27.8957 39.2191 28.0357 39.3454 28.205C39.4718 28.3743 39.5597 28.5688 39.6032 28.7752C39.6467 28.9816 39.6447 29.195 39.5974 29.4005C39.5501 29.6061 39.4585 29.799 39.3291 29.9659C40.0263 30.2648 40.5891 30.4205 41.1227 30.3178C41.5959 30.2264 41.6699 30.0874 42.019 29.8362C42.2368 29.6805 42.4849 29.5996 42.7121 29.9908C42.0089 30.8523 40.6263 31.2328 38.5641 31.1325C37.749 31.8563 36.8128 32.4324 35.7981 32.8346C35.821 33.5085 35.1061 34.5499 33.6533 35.9586C33.868 37.1823 33.7523 38.1755 33.2124 38.5637C32.7174 38.9187 32.0264 38.8097 32.5027 38.0282C32.8205 37.5092 33.4709 37.0359 32.9195 36.4277C31.9044 35.2643 34.1921 34.6447 33.3677 33.5113C33.2155 33.6753 33.0634 33.8362 32.9143 34.0033C32.6319 34.3146 32.2213 34.5336 31.7908 34.4184C31.63 34.3716 31.4825 34.2874 31.3606 34.1728C31.2387 34.0583 31.1458 33.9166 31.0894 33.7594C30.9248 33.3525 30.9415 32.8761 31.029 32.4548C31.0992 32.1511 31.2041 31.8565 31.3417 31.5767C31.5501 31.1159 31.9472 30.462 31.9545 29.9524C31.9607 29.7858 31.9136 29.6216 31.82 29.4833C31.6855 29.5509 31.5339 29.5774 31.3844 29.5594C31.2348 29.5415 31.0939 29.4799 30.9794 29.3824C30.8648 29.2849 30.7818 29.1558 30.7408 29.0114C30.6997 28.8671 30.7025 28.7139 30.7486 28.571L30.757 28.57ZM37.6418 33.7801C37.303 34.9021 35.6814 35.5123 34.5902 35.64C35.4052 34.7447 35.8756 33.8939 36.0013 33.0879C36.166 33.5103 36.1472 33.8279 36.018 34.4184C36.8132 34.3094 37.278 33.4304 37.6418 33.7801ZM39.672 61.1427C40.8114 61.1897 41.7067 60.9372 42.3577 60.385C44.1441 61.2257 41.1373 63.481 39.672 61.1427ZM39.0373 60.5521C38.9529 61.0711 38.8882 61.6554 38.8288 62.2044L38.2369 61.7675C38.3046 61.2558 38.3734 60.7483 38.4182 60.2262C38.3338 60.1702 38.2483 60.11 38.1639 60.0446C38.0441 60.713 38.0597 61.096 38.0201 61.6014L36.9987 60.8458C37.178 60.6673 37.3468 60.5829 37.5052 60.5926C37.5553 60.2615 37.598 59.9118 37.6355 59.5464C37.1613 59.0275 36.7371 58.3228 36.4057 57.3949L36.5245 58.8812L36.4141 58.8365C35.8754 58.6446 35.4252 58.2642 35.1473 57.7662C34.8695 57.2682 34.783 56.6866 34.9039 56.1297C34.3592 55.9556 33.8966 55.5901 33.6025 55.1015C33.3083 54.6128 33.2027 54.0343 33.3052 53.4738L33.3208 53.3565L34.5548 54.2014C33.9128 53.451 33.5126 52.7338 33.2979 52.0665C32.9609 51.9149 32.6361 51.7765 32.3234 51.6513C32.2539 51.7897 32.0966 51.8935 31.8513 51.9627C31.7908 51.45 31.7471 51.1033 31.7033 50.7048C32.165 50.9279 32.4922 51.1303 33.1342 51.3607C33.1176 51.2569 33.1082 51.1531 33.1019 51.0493C32.6256 50.8272 32.1504 50.6342 31.671 50.4349L31.5866 49.7084C32.0931 49.9305 32.6392 50.1692 33.128 50.354C33.449 48.0509 36.0201 46.8802 36.9445 48.1111C37.0967 48.3141 37.1746 48.5628 37.1653 48.816C37.156 49.0691 37.0601 49.3115 36.8935 49.5029C36.957 48.8138 35.7533 48.026 35.574 49.6389C35.0915 53.9606 34.9029 56.1277 34.9029 56.1277C34.9029 56.1277 36.883 57.0483 40.8809 58.7929C42.3744 59.4437 42.29 58.0124 41.6605 57.7229C41.9101 57.675 42.1687 57.7137 42.3932 57.8324C42.6177 57.9512 42.7946 58.1429 42.8945 58.3757C43.5052 59.7955 41.2009 61.4271 39.0373 60.5521ZM34.9341 47.5787C34.1282 47.8644 33.4611 48.51 32.9331 49.5154C31.6314 47.0857 35.0967 45.6202 34.9341 47.5818V47.5787ZM37.1988 51.9533C37.6248 51.7085 38.1141 51.595 38.6049 51.6271C39.0957 51.6592 39.5659 51.8356 39.956 52.1338C40.3461 52.432 40.6387 52.8388 40.7967 53.3026C40.9547 53.7664 40.971 54.2665 40.8436 54.7396C40.7162 55.2127 40.4508 55.6375 40.081 55.9603C39.7111 56.2832 39.2534 56.4896 38.7658 56.5534C38.2782 56.6172 37.7825 56.5356 37.3414 56.3189C36.9004 56.1021 36.5337 55.76 36.2879 55.3358C35.9593 54.7672 35.8707 54.0921 36.0415 53.4585C36.2123 52.8249 36.6285 52.2847 37.1988 51.9564V51.9533ZM38.0107 45.093V43.6877H30.1254V41.7614H38.0107V33.0941H46.7881V25.2426H48.7225V33.0941H57.502V41.7614H65.3852V43.6877H57.502V45.0961C57.502 50.0893 53.6187 54.2605 48.7225 54.7483V65.7104C48.4035 65.728 48.0805 65.7374 47.7553 65.7374C47.4301 65.7374 47.1091 65.728 46.7881 65.7104V54.7514C41.8939 54.2605 38.0107 50.0893 38.0107 45.0961V45.093Z" fill="#A3A2A2"/>
<path d="M36.0183 34.4216C35.9623 34.4299 36.0796 34.4216 36.0183 34.4216V34.4216Z" fill="#A3A2A2"/>
<path d="M39.8255 53.7528C39.9829 53.6615 40.5353 53.1436 40.4269 52.9578C40.3185 52.772 39.5931 52.99 39.4347 53.0802C39.3452 53.1319 39.2799 53.2168 39.2532 53.3163C39.2265 53.4159 39.2406 53.5219 39.2925 53.6111C39.3443 53.7003 39.4296 53.7653 39.5295 53.7919C39.6295 53.8185 39.736 53.8044 39.8255 53.7528Z" fill="#A3A2A2"/>
<path d="M38.7891 55.4777C38.8808 55.6344 39.4009 56.1835 39.5874 56.0766C39.774 55.9697 39.5572 55.2463 39.4655 55.0885C39.206 54.6433 38.5306 55.0314 38.7891 55.4777Z" fill="#A3A2A2"/>
<path d="M37.7102 55.3196C37.6633 55.495 37.6404 56.2537 37.8488 56.3045C38.0572 56.3554 38.4158 55.6964 38.4637 55.521C38.5961 55.0228 37.8436 54.8225 37.7102 55.3196Z" fill="#A3A2A2"/>
<path d="M39.6656 54.8286C39.8417 54.8753 40.6036 54.8981 40.6557 54.6906C40.7078 54.483 40.0439 54.126 39.8678 54.0793C39.3686 53.9485 39.1695 54.6958 39.6656 54.8286Z" fill="#A3A2A2"/>
<path d="M37.0575 54.4467C36.8991 54.538 36.3478 55.0559 36.4561 55.2417C36.4853 55.2946 36.5666 55.3144 36.6646 55.3144C36.9339 55.2983 37.1979 55.2324 37.4431 55.1203C37.5273 55.0661 37.5875 54.9818 37.611 54.8848C37.6346 54.7878 37.6199 54.6854 37.5698 54.5989C37.5198 54.5124 37.4382 54.4484 37.3421 54.4201C37.246 54.3917 37.1426 54.4013 37.0533 54.4467H37.0575Z" fill="#A3A2A2"/>
<path d="M54.7573 55.653L54.8615 56.0516C54.898 56.1948 54.9824 56.3193 55.1314 56.3193C55.2805 56.3193 55.3649 56.1938 55.3993 56.0516L55.5035 55.652C56.0381 55.652 56.1174 55.6198 56.2112 55.1331H54.0486C54.1434 55.6219 54.2289 55.6551 54.7573 55.653Z" fill="#A3A2A2"/>
<path d="M62.4522 4.65585C62.4675 4.66826 62.4817 4.68179 62.4949 4.69633C63.3496 5.49549 64.1302 6.00924 64.8201 6.3289C64.8489 6.3378 64.8765 6.34999 64.9024 6.36523C65.9071 6.81255 66.7148 6.84992 67.2787 6.77104C68.2958 6.62781 68.793 6.07981 68.8628 5.85148C69.3526 4.26976 68.6544 3.12291 66.7961 2.4431C64.8159 1.71659 61.4184 1.65224 59.9353 1.66054C60.6688 2.74236 61.5122 3.74609 62.4522 4.65585Z" fill="#A3A2A2"/>
<path d="M67.338 24.3321H67.3453C67.7002 24.3967 68.0658 24.3666 68.4052 24.2449C69.2223 23.9398 69.6392 23.1033 69.7601 22.8241C69.3682 21.2496 69.6976 19.4738 69.8414 18.8355C68.6697 18.6983 67.5165 18.4346 66.4021 18.0488C66.102 18.821 65.3693 20.9455 65.7195 22.5397C65.7767 22.8095 65.8703 23.0702 65.9977 23.315H67.3255V24.328L67.338 24.3321Z" fill="#A3A2A2"/>
<path d="M68.1734 32.0482C69.1854 32.1883 70.4756 31.6528 70.7674 29.6787C71.0394 27.8427 70.0983 24.7042 69.9014 24.0742C69.5809 24.4763 69.1596 24.7871 68.6799 24.9751C68.3698 25.0902 68.0415 25.1489 67.7107 25.1484C67.5887 25.1484 67.3469 25.1225 67.3469 25.1225L67.3532 31.6154C67.5654 31.8532 67.8566 32.0068 68.1734 32.0482Z" fill="#A3A2A2"/>
<path d="M70.082 80.7578C67.7892 82.708 57.0972 87.5372 56.7418 84.3125C56.772 83.1854 60.005 83.6317 60.9294 83.6317C62.7762 83.6317 62.7762 80.8294 60.9294 80.8294C57.475 81.5114 53.9742 81.9343 50.4563 82.0946V85.504C52.5604 85.4101 54.6584 85.2089 56.7418 84.901V87.7157C56.7418 91.4614 69.8162 85.5538 72.3509 83.4023L69.1055 83.8279L70.082 80.7578Z" fill="#A3A2A2"/>
<path d="M73.6148 18.2709C72.534 17.26 71.7857 16.1951 71.6825 14.905C70.6572 14.3765 69.7321 13.674 68.9488 12.8293C67.275 10.9798 66.9686 8.5522 66.9134 7.58282C66.879 7.58282 66.8446 7.58282 66.8092 7.58282C66.0927 7.57282 65.3856 7.41928 64.73 7.13135C63.3418 8.08516 62.5101 9.48214 62.3975 11.094C62.2631 12.9735 63.1041 14.8864 64.6445 16.2107C66.7758 18.0384 71.2896 18.2792 73.6148 18.2709Z" fill="#A3A2A2"/>
<path d="M72.7753 25.0174C73.3787 25.143 73.8175 25.0091 74.0176 24.8565C74.7012 24.323 74.7982 23.7211 74.8096 23.5343C73.8539 22.0511 73.4131 19.8591 73.2766 19.0527C72.5251 19.0527 71.609 19.0185 70.6221 18.925C70.4866 19.5063 69.9968 21.9287 70.8305 23.472C71.4298 24.5898 72.3073 24.9198 72.7753 25.0174Z" fill="#A3A2A2"/>
<path d="M71.5091 29.9664C71.7657 30.5139 72.2041 30.9564 72.7504 31.2192C73.1099 31.3904 73.9166 31.4651 74.5898 31.0988C75.162 30.7874 75.4986 30.2321 75.5945 29.4517C75.7894 27.8564 75.1672 25.899 74.8827 25.1133C74.7639 25.2418 74.6346 25.3602 74.496 25.4673C74.1834 25.7132 73.7363 25.843 73.2454 25.843C73.0353 25.8423 72.8258 25.8204 72.6201 25.7776C71.997 25.6444 71.4223 25.3444 70.9578 24.9099C71.3069 26.2207 71.7592 28.3349 71.5435 29.7931C71.532 29.8533 71.5206 29.9083 71.5091 29.9664Z" fill="#A3A2A2"/>
<path d="M67.0654 1.71292C70.2243 2.86704 69.8991 5.15244 69.6125 6.08134C69.4426 6.62519 68.737 7.24688 67.6907 7.48143C67.7365 8.31174 68.0033 10.6169 69.5281 12.3044C70.1635 12.9918 70.9039 13.575 71.7219 14.0325C73.4613 13.9152 74.5119 14.1363 74.8662 14.6999C75.0893 14.6837 75.3056 14.6165 75.4983 14.5034C75.691 14.3904 75.8549 14.2345 75.9772 14.0481C76.7912 12.8089 75.6646 12.0927 74.4025 12.1934C74.2971 12.2014 74.1928 12.1676 74.1124 12.0994C74.0319 12.0311 73.9818 11.934 73.9731 11.8291C73.9262 11.2271 76.7276 10.7798 77.4228 11.2064C78.2302 9.95472 78.7073 8.52035 78.8099 7.03619C75.6708 4.0817 72.0902 2.40276 68.068 1.99938C68.1847 -0.0587308 64.5807 -0.688721 60.3953 0.884698H60.4015C62.0868 0.889888 65.1435 1.01651 67.0654 1.71292ZM71.1039 4.74559C72.7308 4.74559 74.096 5.39531 75.4811 6.46743L73.0528 6.08446C72.8658 6.32013 72.5959 6.47619 72.2977 6.52097C71.9994 6.56575 71.6953 6.49591 71.4468 6.32561C71.1984 6.15531 71.0243 5.89729 70.9599 5.60389C70.8954 5.31048 70.9454 5.00364 71.0997 4.74559H71.1039Z" fill="#A3A2A2"/>
<path d="M74.071 19.0461C74.2586 20.084 74.8558 22.8188 76.095 23.8567C77.0726 24.6725 78.0106 24.659 78.4806 24.5759C79.0872 24.4722 79.4498 24.1836 79.5749 23.9698C79.7063 23.7461 79.794 23.4996 79.8334 23.2433C78.0731 21.5827 76.0815 20.3072 74.5015 19.0295L74.071 19.0461Z" fill="#A3A2A2"/>
<path d="M78.0439 25.3916C77.3301 25.3856 76.6335 25.172 76.0398 24.7772C76.3222 25.6075 77.0924 27.5255 78.4129 28.3371C80.1023 29.375 81.5218 28.4544 81.9084 27.8753C82.2211 27.4072 82.3451 26.8374 82.3889 26.3589C81.8477 25.4637 81.2057 24.6329 80.4754 23.8826C80.4149 24.0493 80.3399 24.2104 80.2513 24.3641C79.9658 24.8488 79.354 25.2152 78.6151 25.3429C78.4265 25.3755 78.2354 25.3918 78.0439 25.3916Z" fill="#A3A2A2"/>
<path d="M77.0642 43.4343C77.4302 45.398 77.959 47.3281 78.6452 49.2049C79.6051 51.758 81.4904 55.3564 84.7838 54.4918L77.478 43.1541C77.3425 43.2475 77.2049 43.3419 77.0642 43.4343Z" fill="#A3A2A2"/>
<path d="M90.2503 56.6549L80.067 40.8501C79.4839 41.5099 78.8413 42.1151 78.1472 42.6581L86.3077 55.3596C86.7689 55.9317 87.3868 56.3585 88.0865 56.5884C88.7862 56.8182 89.5377 56.8413 90.2503 56.6549Z" fill="#A3A2A2"/>
<path d="M90.5665 57.8569C89.4805 58.1415 88.3302 58.0579 87.2972 57.6192C83.4202 59.1822 78.1258 55.5798 75.8017 44.0012L73.0086 45.2789C73.0774 47.2145 72.9044 50.1475 71.5839 51.6846C70.9273 52.4495 70.2457 52.7796 70.4885 52.2181C71.4896 49.9258 71.9324 47.4304 71.7809 44.9353C71.7721 44.8141 71.801 44.6931 71.8637 44.5887C71.9263 44.4844 72.0196 44.4018 72.131 44.352C73.933 43.528 75.6745 42.8731 77.2524 41.6536C81.0575 38.6956 82.1445 34.6738 83.7922 29.965C83.6125 29.0976 83.3328 28.2537 82.9585 27.4502C82.8637 27.7547 82.7269 28.0447 82.552 28.3117C82.1122 28.9676 81.1357 29.5862 79.9559 29.5862C79.2615 29.579 78.5832 29.3772 77.9986 29.0039C77.2535 28.5473 76.6719 27.8218 76.2269 27.0901C76.3749 27.8789 76.4593 28.7507 76.3603 29.5509C76.2029 30.8503 75.5088 31.4824 74.9554 31.7854C74.5064 32.0234 74.005 32.1465 73.4963 32.1435C73.1214 32.1505 72.7494 32.0761 72.4062 31.9255C71.9384 31.7025 71.5284 31.3755 71.2077 30.9697C70.6449 32.2784 69.5568 32.8513 68.4813 32.8513C68.1957 32.8513 67.4839 32.7776 67.314 32.5804V48.2067C67.3125 50.8038 66.7882 53.3742 65.7719 55.766C64.7557 58.1579 63.2682 60.3225 61.3974 62.1319C68.0091 65.587 68.2009 74.9092 61.6059 71.6803C61.3183 71.5153 60.9958 71.4199 60.6644 71.4016C60.333 71.3833 60.0019 71.4427 59.6978 71.5751C59.3937 71.7074 59.125 71.909 58.9133 72.1636C58.7017 72.4182 58.553 72.7187 58.4792 73.041L59.0639 73.4074C59.2617 73.0795 59.534 72.8025 59.8588 72.5984C60.1836 72.3944 60.5519 72.269 60.9342 72.2323C61.3164 72.1957 61.702 72.2488 62.0599 72.3875C62.4179 72.5261 62.7381 72.7464 62.9951 73.0306C62.7086 72.8456 62.3815 72.7321 62.0416 72.6998C61.7016 72.6674 61.3589 72.7173 61.0424 72.845C60.726 72.9727 60.4451 73.1746 60.2237 73.4335C60.0022 73.6924 59.8468 74.0006 59.7705 74.3321C59.9595 74.4648 60.1553 74.5874 60.3573 74.6995C60.5547 74.3715 60.8267 74.0941 61.1514 73.8898C61.4761 73.6855 61.8444 73.56 62.2267 73.5232C62.6089 73.4865 62.9945 73.5396 63.3525 73.6783C63.7104 73.817 64.0306 74.0373 64.2874 74.3217C64.001 74.1364 63.6739 74.0227 63.3339 73.9903C62.9939 73.9579 62.651 74.0078 62.3345 74.1357C62.018 74.2636 61.7372 74.4657 61.516 74.7249C61.2948 74.9841 61.1397 75.2926 61.0639 75.6243C61.6565 76.0497 62.3302 76.3499 63.0436 76.5065C63.757 76.6631 64.495 76.6727 65.2123 76.5348C65.9296 76.3968 66.611 76.1142 67.2145 75.7044C67.8181 75.2945 68.3311 74.7661 68.722 74.1515C69.0893 74.3136 69.5011 74.3465 69.8897 74.2448C70.2783 74.1432 70.6206 73.913 70.8606 73.5921C73.6318 68.0436 72.3562 70.6103 73.6224 68.1952C68.6282 66.4432 69.3609 57.6763 72.8418 55.8237C72.327 56.4225 71.3682 59.6877 71.3827 61.9897C71.4119 65.9025 76.2592 64.5252 77.3025 70.0851C77.8486 72.9912 76.1227 75.837 72.8898 75.2973C72.5335 75.2132 72.1625 75.2135 71.8064 75.2982C71.4503 75.383 71.1192 75.5498 70.8396 75.7853C70.5601 76.0207 70.34 76.3182 70.197 76.6539C70.054 76.9895 69.9922 77.3539 70.0164 77.7177L70.746 77.9252C70.8512 77.5168 71.0512 77.1386 71.3297 76.821C71.6083 76.5034 71.9577 76.2553 72.3499 76.0964C72.7422 75.9376 73.1664 75.8725 73.5884 75.9064C74.0105 75.9403 74.4187 76.0722 74.7803 76.2916C74.4191 76.1859 74.0376 76.1686 73.6682 76.2412C73.2989 76.3137 72.9525 76.4739 72.6586 76.7082C72.3647 76.9425 72.1319 77.244 71.98 77.5871C71.8281 77.9301 71.7616 78.3046 71.7861 78.6787C72.0255 78.7605 72.269 78.8298 72.5156 78.8863C72.6208 78.4778 72.8206 78.0995 73.0991 77.7818C73.3776 77.4641 73.727 77.2158 74.1193 77.0568C74.5115 76.8979 74.9357 76.8327 75.3579 76.8666C75.78 76.9004 76.1883 77.0323 76.55 77.2517C76.1888 77.1462 75.8074 77.129 75.4382 77.2017C75.069 77.2743 74.7228 77.4345 74.429 77.6688C74.1353 77.9031 73.9026 78.2045 73.7507 78.5475C73.5989 78.8904 73.5323 79.2648 73.5568 79.6388C74.3176 79.9022 75.1246 80.0078 75.9279 79.9491C76.7313 79.8904 77.5141 79.6686 78.2282 79.2975C78.9423 78.9263 79.5726 78.4136 80.0803 77.7908C80.588 77.168 80.9624 76.4484 81.1805 75.6762C81.6203 75.7315 82.066 75.6366 82.4446 75.407C82.8232 75.1774 83.1124 74.8266 83.2649 74.412V64.3426C82.1894 64.3469 81.1277 64.1018 80.164 63.6265C79.2002 63.1511 78.3609 62.4588 77.7126 61.6042C77.0642 60.7497 76.6248 59.7565 76.4289 58.7034C76.2331 57.6503 76.2863 56.5663 76.5844 55.5372C80.8095 60.5055 86.9022 61.7489 90.7448 57.8839L90.6791 57.8216C90.6437 57.8351 90.6051 57.8465 90.5665 57.8569Z" fill="#A3A2A2"/>
<path d="M91.8479 49.38L93.6947 52.2456C94.2832 49.9124 94.277 47.2752 93.676 44.3339C92.7494 39.7963 83.6927 24.718 88.8818 24.7471C88.8836 25.201 89.0526 25.6385 89.3569 25.9765C89.6611 26.3145 90.0794 26.5295 90.5323 26.5807C90.9852 26.6319 91.4412 26.5158 91.8138 26.2543C92.1864 25.9928 92.4496 25.6042 92.5535 25.1622C93.0832 22.7275 92.8701 20.1906 91.9416 17.8773C91.013 15.564 89.4115 13.5798 87.3425 12.1794C88.2044 14.5738 86.3701 18.1036 85.8115 22.7855C84.5932 33.0158 92.4785 40.1824 91.8479 49.38Z" fill="#A3A2A2"/>
<path d="M82.4881 37.1467C81.9811 38.2025 81.3679 39.2043 80.658 40.1369L91.1977 56.5436C91.7594 57.2407 92.512 57.7608 93.3643 58.0408C94.2167 58.3208 95.1323 58.3487 96.0002 58.1212L82.4881 37.1467Z" fill="#A3A2A2"/>
</svg>
